<svg id="Component_35_1" data-name="Component 35 – 1" xmlns="http://www.w3.org/2000/svg" width="67.217" height="27.521" viewBox="0 0 67.217 27.521">
  <path id="Path_216" data-name="Path 216" d="M.092,2.375A47.261,47.261,0,0,0,9.626,14.832,46.079,46.079,0,0,0,33.983,27.167a30.158,30.158,0,0,0,25.372-7.745c.868-.824-.91-1.844-1.582-1.2a27.957,27.957,0,0,1-12.949,7.1c-8.342,1.891-17.047-.332-24.377-4.446A46.878,46.878,0,0,1,2.987,3.794,28.8,28.8,0,0,0,13.212,4.806c8.306-.445,16.394-2.978,24.717-3.177,3.481-.086,7.131.293,10.187,2.09,3.5,2.063,5.478,5.721,6.661,9.5-6.282.957-12.921,1.363-19.109-.227l-.113-.028a57.129,57.129,0,0,1-5.353-2c-.567-.235-2.137-.019-.993.539a2.075,2.075,0,0,0,.227.105,31.931,31.931,0,0,0,5.079,1.919,58,58,0,0,0,32.5,1.438c.481-.122-.039-.547-.218-.661a1.988,1.988,0,0,0-1.449-.227,52.141,52.141,0,0,1-21.205.907,64.429,64.429,0,0,0,12.222-.841c.31-.047.376-.16.31-.285a.573.573,0,0,0,.144-.653C55.468,8.752,53,4.692,48.846,2.375,41.911-1.512,33.03.257,25.622,1.5a120.228,120.228,0,0,1-12.863,1.77c-3.794.227-7.748,0-11.229-1.645C1.049,1.4-.373,1.5.092,2.375" transform="translate(0 0)" fill="#004f2d"/>
</svg>
