<svg id="Component_36_1" data-name="Component 36 – 1" xmlns="http://www.w3.org/2000/svg" width="67.217" height="27.521" viewBox="0 0 67.217 27.521">
  <path id="Path_216" data-name="Path 216" d="M67.125,2.375a47.261,47.261,0,0,1-9.534,12.457A46.079,46.079,0,0,1,33.233,27.167,30.158,30.158,0,0,1,7.861,19.422c-.868-.824.91-1.844,1.582-1.2a27.957,27.957,0,0,0,12.949,7.1c8.342,1.891,17.047-.332,24.377-4.446A46.878,46.878,0,0,0,64.23,3.794,28.8,28.8,0,0,1,54,4.806C45.7,4.361,37.61,1.828,29.288,1.629c-3.481-.086-7.131.293-10.187,2.09-3.5,2.063-5.478,5.721-6.661,9.5,6.282.957,12.921,1.363,19.109-.227l.113-.028a57.129,57.129,0,0,0,5.353-2c.567-.235,2.137-.019.993.539a2.075,2.075,0,0,1-.227.105A31.931,31.931,0,0,1,32.7,13.527,58,58,0,0,1,.2,14.965c-.481-.122.039-.547.218-.661a1.988,1.988,0,0,1,1.449-.227,52.141,52.141,0,0,0,21.205.907,64.429,64.429,0,0,1-12.222-.841c-.31-.047-.376-.16-.31-.285a.573.573,0,0,1-.144-.653c1.352-4.455,3.821-8.514,7.974-10.831C25.306-1.512,34.187.257,41.595,1.5a120.228,120.228,0,0,0,12.863,1.77c3.794.227,7.748,0,11.229-1.645.481-.227,1.9-.124,1.438.747" transform="translate(0 0)" fill="#004f2d"/>
</svg>
