<svg xmlns="http://www.w3.org/2000/svg" xmlns:xlink="http://www.w3.org/1999/xlink" width="26" height="26" viewBox="0 0 26 26">
  <defs>
    <clipPath id="clip-path">
      <rect id="Rectangle_89" data-name="Rectangle 89" width="26" height="26" fill="none"/>
    </clipPath>
  </defs>
  <g id="Group_101" data-name="Group 101" clip-path="url(#clip-path)">
    <path id="Path_132" data-name="Path 132" d="M21.982,1.376a.97.97,0,0,1-.087.12l-7.58,8.6a4.285,4.285,0,0,1-6.431,0L.211,1.391A2.614,2.614,0,0,0,0,2.421V12.28a4.608,4.608,0,0,0,4.607,4.609H17.593A4.608,4.608,0,0,0,22.2,12.28V2.421a2.607,2.607,0,0,0-.217-1.045" transform="translate(1.9 4.655)" fill="#015c31"/>
    <path id="Path_133" data-name="Path 133" d="M9.361,8.773a1.981,1.981,0,0,0,2.974,0l7.58-8.6A1.176,1.176,0,0,1,20,.09,2.632,2.632,0,0,0,19.328,0H2.367A2.628,2.628,0,0,0,1.7.087Z" transform="translate(2.147 4.456)" fill="#015c31"/>
  </g>
</svg>
