<svg xmlns="http://www.w3.org/2000/svg" xmlns:xlink="http://www.w3.org/1999/xlink" width="26" height="26" viewBox="0 0 26 26">
  <defs>
    <clipPath id="clip-path">
      <rect id="Rectangle_90" data-name="Rectangle 90" width="26" height="26" fill="none"/>
    </clipPath>
  </defs>
  <g id="Group_103" data-name="Group 103" clip-path="url(#clip-path)">
    <path id="Path_134" data-name="Path 134" d="M20.957,4.914a1.524,1.524,0,1,0,1.524,1.524,1.524,1.524,0,0,0-1.524-1.524" transform="translate(-1.073 -0.271)" fill="#015c31"/>
    <path id="Path_135" data-name="Path 135" d="M13.5,6.983a6.4,6.4,0,1,0,6.4,6.4,6.411,6.411,0,0,0-6.4-6.4m0,10.5a4.1,4.1,0,1,1,4.1-4.1,4.106,4.106,0,0,1-4.1,4.1" transform="translate(-0.392 -0.385)" fill="#015c31"/>
    <path id="Path_136" data-name="Path 136" d="M18.191,26H7.809A7.818,7.818,0,0,1,0,18.191V7.809A7.818,7.818,0,0,1,7.809,0H18.191A7.818,7.818,0,0,1,26,7.809V18.191A7.818,7.818,0,0,1,18.191,26M7.809,2.446A5.369,5.369,0,0,0,2.446,7.809V18.191a5.369,5.369,0,0,0,5.363,5.363H18.191a5.369,5.369,0,0,0,5.363-5.363V7.809a5.369,5.369,0,0,0-5.363-5.363Z" transform="translate(0 0)" fill="#015c31"/>
  </g>
</svg>
