<svg xmlns="http://www.w3.org/2000/svg" width="91.291" height="99.999" viewBox="0 0 91.291 99.999">
  <g id="Group_133" data-name="Group 133" transform="translate(0.001 -0.001)">
    <path id="Path_36" data-name="Path 36" d="M.112,52.484A26.245,26.245,0,0,0,6.156,67.772c4.435,5.112,10.737,8.052,17.179,9.759.131.037,1.066.286,1.139-.009s-.81-.529-.987-.572C16.672,75.149,10.223,71.6,6.3,65.573c-6.479-9.957-4.435-22.987-.61-33.525A84.826,84.826,0,0,1,21.672,4.988c-1.234,5.1-.292,10.471,1.913,15.406a46.821,46.821,0,0,0,4.83,8.2c1.485,2.053,3.1,3.985,4.48,6.111a48.346,48.346,0,0,1,6.023,13.024A27.363,27.363,0,0,1,39.6,61.521a17.867,17.867,0,0,1-7.134,10.363,59.9,59.9,0,0,1-5.625-7.523A62.44,62.44,0,0,1,17.21,31.2c-.009-.294,0-.589.006-.883s.015-.6.024-.9c.013-.619-2.119-.957-2.135-.574-.006.3-.013.6-.021.911a86.715,86.715,0,0,0,.8,13.663c2.4,17.31,10.127,34.357,23.583,45.844a2.5,2.5,0,0,0,1.427.514c.176.009.881-.043.507-.368a61.349,61.349,0,0,1-9.9-10.759A74.362,74.362,0,0,1,20.731,56.543,62.382,62.382,0,0,0,31.225,72.516a.723.723,0,0,0,.206.161c.058.185.61.4.7.434.337.118,1.023.361,1.367.146a18.385,18.385,0,0,0,8.517-12.515c1.589-9.282-2.567-19.142-7.7-26.665-1.515-2.212-3.265-4.25-4.772-6.47a42.324,42.324,0,0,1-4.508-8.368c-2.39-6.1-2.6-12.708.69-18.525.163-.295-1.771-.933-2.072-.638A81.911,81.911,0,0,0,10.834,16.43a81.873,81.873,0,0,0-8.3,18.052,48.138,48.138,0,0,0-2.427,18" transform="translate(14.55 0.001)" fill="#085c31"/>
    <path id="Path_37" data-name="Path 37" d="M0,48.977c-.067.374,1.008.632,1.066.286.552-2.977,1.221-5.933,2.038-8.845C5.65,31.372,9.7,22.284,16.5,15.672,11.63,22.43,6.628,29.565,5.8,37.991a.179.179,0,0,0,.006.058l-.021.067c-.14.5.4.987.853,1.075A16.533,16.533,0,0,0,17.571,37.5a16,16,0,0,0,6.846-6.919,18.879,18.879,0,0,0,1.316-4.92c.325-1.728.6-3.463.883-5.191,1.161-6.935,2.743-14.09,8.2-18.987C35.647.73,34.4-.1,33.646.01A47.14,47.14,0,0,0,22.947,2.9,39.907,39.907,0,0,0,6.8,14.238a25.086,25.086,0,0,0-5.75,18.185c.088,1.038,2.266,1.288,2.162.133A23.149,23.149,0,0,1,4.68,22.026C8.872,11.325,20.218,4.658,31.189,2.237a24.2,24.2,0,0,0-4.2,7.235,53.516,53.516,0,0,0-2.405,9.884c-.273,1.6-.522,3.207-.808,4.811a26.87,26.87,0,0,1-1.075,4.94c-2.324,5.913-9.465,9.692-15.64,8.5a.636.636,0,0,0-.112-.015c1.2-9.465,7.575-17.265,12.906-24.81.264-.376-.757-.589-.993-.413a36.476,36.476,0,0,0-6.58,6.457C5.431,27.409,1.981,38.322,0,48.977" transform="translate(56.2 43.74)" fill="#085c31"/>
    <path id="Path_38" data-name="Path 38" d="M.072,1.847A36.741,36.741,0,0,0,7.483,11.53,35.822,35.822,0,0,0,26.419,21.12,23.445,23.445,0,0,0,46.143,15.1c.675-.641-.707-1.434-1.23-.935a21.734,21.734,0,0,1-10.066,5.516C28.362,21.15,21.6,19.421,15.9,16.223A36.443,36.443,0,0,1,2.322,2.949a22.386,22.386,0,0,0,7.949.787c6.457-.346,12.745-2.315,19.215-2.47a14.8,14.8,0,0,1,7.919,1.625c2.721,1.6,4.258,4.447,5.178,7.382-4.884.744-10.045,1.06-14.856-.176l-.088-.021a44.412,44.412,0,0,1-4.162-1.552c-.441-.183-1.662-.015-.772.419a1.613,1.613,0,0,0,.176.082,24.824,24.824,0,0,0,3.949,1.492A45.088,45.088,0,0,0,52.1,11.634c.374-.095-.03-.426-.17-.514a1.546,1.546,0,0,0-1.126-.176,40.534,40.534,0,0,1-16.485.705A50.087,50.087,0,0,0,43.82,11c.241-.037.292-.125.241-.221a.445.445,0,0,0,.112-.507c-1.051-3.463-2.971-6.619-6.2-8.42C32.582-1.176,25.677.2,19.919,1.169a93.465,93.465,0,0,1-10,1.376A17.866,17.866,0,0,1,1.189,1.266c-.374-.176-1.479-.1-1.118.58" transform="translate(-0.001 78.605)" fill="#085c31"/>
  </g>
</svg>
