<svg id="Component_34_1" data-name="Component 34 – 1" xmlns="http://www.w3.org/2000/svg" width="260" height="58.52" viewBox="0 0 260 58.52">
  <path id="Path_210" data-name="Path 210" d="M117.368,41.754a.45.45,0,0,0-.368.253,25.03,25.03,0,0,0-1.052,2.649.573.573,0,0,1-.177.3,2.339,2.339,0,0,0-.494.925,3.479,3.479,0,0,1-.558.988,24.615,24.615,0,0,0-1.787,2.775c-.494.988-3.32,3.827-4.195,3.827-1.052,0-1.293-.8-1.293-1.85v-.494A8.233,8.233,0,0,1,108,47.862c0,.063.684-2.154,1.052-3.333a7.121,7.121,0,0,1,.241-.735,9.645,9.645,0,0,0,.672-3.637V39.6a4.193,4.193,0,0,0-.127-1.052,2.212,2.212,0,0,0-2.218-1.356,4.56,4.56,0,0,0-1.914.494c-.558.241-.988.494-.988.621a1.05,1.05,0,0,1-.558.431c-.3.177-2.04,2.218-2.471,2.712a12.728,12.728,0,0,0-1.356,1.914c-.241.3-4,5.791-3.878,5.791a1.949,1.949,0,0,0-.431.621c-.127.3-.3.431-.368.431s-.127-.063-.127-.19v-.241a3.7,3.7,0,0,1,.241-.621c0-.063.177-.494.3-.862a29.236,29.236,0,0,1,1.229-4l.431-1.356c.241-.558.368-1.052.431-1.115a8.033,8.033,0,0,0,.253-1.546,8.986,8.986,0,0,0,.063-1.166,2.277,2.277,0,0,0-.127-.925,3.841,3.841,0,0,0-.431-1.229,2.13,2.13,0,0,0-1.85-.8,6,6,0,0,0-2.344.558l-.672.368a15.942,15.942,0,0,0-3.89,4.74.508.508,0,0,0-.19.177,25.027,25.027,0,0,0-1.052,2.649.573.573,0,0,1-.177.3,2.512,2.512,0,0,0-.494.925,3.479,3.479,0,0,1-.558.988,24.615,24.615,0,0,0-1.787,2.775,2.373,2.373,0,0,1-.684.735,2.7,2.7,0,0,0-.735.735,18.918,18.918,0,0,1-4.93,4.435,5.823,5.823,0,0,1-2.585.8,2.731,2.731,0,0,1-2.04-1.609c0-.063-.063-.063-.063-.127a4.006,4.006,0,0,1-.431-1.483,8.481,8.481,0,0,1,.19-1.483l.19-.8a14.118,14.118,0,0,1,.862-3.384l.3-.684,1.052-.063a6.757,6.757,0,0,0,2.522-.8,12.861,12.861,0,0,0,3.4-2.154,11.511,11.511,0,0,0,2.344-2.9l.177-.558a1.571,1.571,0,0,0,.3-.735,2.178,2.178,0,0,0,.127-.494,2.483,2.483,0,0,0-.253-.988A4.033,4.033,0,0,0,83,35.8a3.494,3.494,0,0,0-1.85-.494,6.762,6.762,0,0,0-3.827,1.723,18.753,18.753,0,0,0-2.091,2.281c0,.177-.127.3-.621.862a1.544,1.544,0,0,0-.494.735c0,.063-.127.177-.253.3-.114.165-.19.342-.291.52a.474.474,0,0,0-.342.241c-.241.532-.469,1.077-.672,1.622l-.114.215a2.68,2.68,0,0,0-.494,1.052,5.145,5.145,0,0,1-.494.988A4.2,4.2,0,0,0,70.848,47a26.948,26.948,0,0,0-1.685,2.611,2.493,2.493,0,0,1-.672.735,2.7,2.7,0,0,0-.735.735,18.918,18.918,0,0,1-4.93,4.435,5.823,5.823,0,0,1-2.585.8,2.752,2.752,0,0,1-2.028-1.6c0-.063-.063-.063-.063-.127a3.781,3.781,0,0,1-.431-1.483,7.425,7.425,0,0,1,.19-1.483l.177-.8a14.74,14.74,0,0,1,.862-3.384l.3-.684L60.3,46.7a6.757,6.757,0,0,0,2.522-.8,12.593,12.593,0,0,0,3.384-2.154,11.794,11.794,0,0,0,2.344-2.9l.19-.558a1.571,1.571,0,0,0,.3-.735,2.362,2.362,0,0,0,.127-.494,2.7,2.7,0,0,0-.241-.988,4.033,4.033,0,0,0-1.66-2.281,3.525,3.525,0,0,0-1.85-.494,6.726,6.726,0,0,0-3.814,1.723,17.957,17.957,0,0,0-2.1,2.281c0,.19-.114.3-.608.862-.241.253-.494.558-.494.735,0,.063-.114.177-.241.3a3.8,3.8,0,0,0-.279.494.451.451,0,0,0-.342.241c-.241.532-.469,1.064-.672,1.609l-.127.241a2.681,2.681,0,0,0-.494,1.052,5.146,5.146,0,0,1-.494.988,4.483,4.483,0,0,0-.621,1.166.37.37,0,0,1-.025.114,66.221,66.221,0,0,1-4.043,7.464c-.494.8-.988,1.419-1.166,1.419a.136.136,0,0,0-.127.127c0,.063-.431.19-.862.494a1.785,1.785,0,0,1-.621.253c-.114,0-.177-.063-.3-.127-.494-.431-.558-.8-.558-2.281,0-2.775.063-2.9.241-3.269.051-.177.089-.368.127-.558-.063-.063-.063-.114-.063-.253a4.172,4.172,0,0,1,.368-1.229l.938-3.4.3-.862a2.969,2.969,0,0,0,.253-.735l.241-1.052a9.377,9.377,0,0,0,.368-3.079V38.75l-.368-.558c-.368-.684-1.229-1.483-1.546-1.483a.443.443,0,0,1-.3-.127c0-.063-.114-.127-.241-.127a.525.525,0,0,1-.367-.19.47.47,0,0,0-.431-.177c-.127,0-.241-.063-.241-.127a.746.746,0,0,0-.431-.127,6.646,6.646,0,0,1-2.154-.925c-.19-.114-.253-.19-.253-.368a2.418,2.418,0,0,1,.19-.735l.063-.621a10.708,10.708,0,0,1,.241-1.419,9.487,9.487,0,0,0,.253-1.787c0-.241,0-.368-.127-.368s-.19-.063-.19-.127-.253-.127-.621-.127h-.368a1.655,1.655,0,0,0-1.293.988l-.558.862a1.988,1.988,0,0,0-.368.684,1.686,1.686,0,0,1-.127.431,1.335,1.335,0,0,0-.127.735c0,.431.063.862.241.988a1.317,1.317,0,0,1,.19.431c.114.3.558.735.735.735.063,0,.063.127.063.177a1.835,1.835,0,0,0,.3.558c.063.063.127.063.241.127a26.439,26.439,0,0,1-1.546,6.159l-.3.672c-.063.063-.063.114-.063.241a.9.9,0,0,0,.19.558,1.979,1.979,0,0,0,.988-.558,8.212,8.212,0,0,0,.988-2.471c0-.177,0-.3.063-.368a3.475,3.475,0,0,0,.431-1.052,17.817,17.817,0,0,0,.8-2.534h.19a9.4,9.4,0,0,1,2.04.494c.494.494,1.229.3,1.229,1.356a8.453,8.453,0,0,1-.368,1.483,2.758,2.758,0,0,1-.3,1.179c-.063.063-.063.177-.063.368a8.63,8.63,0,0,1-.621,2.091,10.44,10.44,0,0,0-.3,1.242.331.331,0,0,1-.127.253,3.417,3.417,0,0,0-.494,1.6,3.975,3.975,0,0,1-.368,1.115,4.109,4.109,0,0,0-.253,1.293,5.542,5.542,0,0,1-.241,1.356,3.372,3.372,0,0,0-.127.621c0,.19.063.241.063.368s.063.241.063.368a.341.341,0,0,1-.063.19.746.746,0,0,0-.127.494,7.646,7.646,0,0,0,.621,2.585,5.361,5.361,0,0,1,.431,1.166,3.239,3.239,0,0,0,1.483,1.673,1.667,1.667,0,0,0,.988.241c.988-.063,2.1-.558,2.1-1.052,0-.063.051-.127.177-.127a4.208,4.208,0,0,0,1.419-1.293,1.791,1.791,0,0,1,.241-.431,22.982,22.982,0,0,0,1.85-2.9,5.016,5.016,0,0,1,.735-1.293,1.383,1.383,0,0,0,.076-.139,1.794,1.794,0,0,1,.051.253,5.705,5.705,0,0,1,.19.925c0,.051-.063.127-.063.177a7.273,7.273,0,0,0,.925,2.585,9.681,9.681,0,0,0,1.964,1.977h-.013c.545,0,1.914,1.052,2.965,1.052a4.212,4.212,0,0,0,1.914-.494,7.619,7.619,0,0,0,1.723-.8c.367-.3.8-.558,1.166-.862a38.477,38.477,0,0,0,3.941-4.309,3.175,3.175,0,0,1,.621-.862c.152-.177.3-.355.444-.545l-.127.836a2.592,2.592,0,0,1,.063.3,5.705,5.705,0,0,1,.19.925c0,.051-.063.127-.063.177a7.273,7.273,0,0,0,.925,2.585A9.743,9.743,0,0,0,73.2,56.923h0c.545,0,1.914,1.052,2.953,1.052a4.212,4.212,0,0,0,1.914-.494,7.619,7.619,0,0,0,1.723-.8c.368-.3.8-.558,1.166-.862A38.477,38.477,0,0,0,84.9,51.511a3.175,3.175,0,0,1,.621-.862,7.893,7.893,0,0,0,.988-1.356l.621-1.052c.368-.494,2.218-4.195,2.9-5.551v-.127c.507-.811,1.356-2.129,1.356-2.091.431-1.229,2.344-3.51,4.068-3.51.241,0,.494.862.494,1.673,0,.177-.063.3-.063.494-.063.431-.19.862-.241,1.293a6.192,6.192,0,0,1-.3,1.179l-.684,1.914c-.177.494-.3,1.052-.494,1.546a6.643,6.643,0,0,0-.558,1.6,7.176,7.176,0,0,1-.368,1.115,3.883,3.883,0,0,0-.3.988,3.422,3.422,0,0,1-.241.8l-.431,1.546a8.082,8.082,0,0,1-.368,1.66A9.01,9.01,0,0,0,91.4,54.92a.746.746,0,0,0,.127.494c.19.3.431.431.988.558l.558.177A2.413,2.413,0,0,0,95.1,54.73a33.423,33.423,0,0,1,3.4-6.716,37.6,37.6,0,0,1,4.081-6.159,17.131,17.131,0,0,1,1.052-1.483c.063,0,1.419-1.483,1.419-1.483a4.737,4.737,0,0,0,.925-.431,2.33,2.33,0,0,1,.988-.558c.253,0,.3.253.3.735v.38a10.879,10.879,0,0,1-.3,2.028,11.4,11.4,0,0,1-.494,2.04,3.436,3.436,0,0,0-.3.988c0,.177-.127.368-.431.988a11.436,11.436,0,0,0-1.115,5.424,4.016,4.016,0,0,0,.127,1.166c0,.063.063.063.063.127.19.988.241,1.115.862,1.609a5.157,5.157,0,0,0,3.206,1.293,2.73,2.73,0,0,0,1.85-.735c1.914-1.914,2.218-2.281,2.218-2.408a2.093,2.093,0,0,1,.621-.862,7.893,7.893,0,0,0,.988-1.356l.608-1.052c.368-.494,2.218-4.195,2.9-5.551v-.19a.221.221,0,0,1,.063-.19C118.116,42.007,117.622,41.754,117.368,41.754ZM76.183,44.035a2.687,2.687,0,0,0,.368-.8,3.451,3.451,0,0,1,.8-1.483.331.331,0,0,0,.127-.253,10.011,10.011,0,0,1,.672-1.115c.228-.38.431-.773.621-1.166.558-.925,1.787-2.281,2.9-2.281a.955.955,0,0,1,.558.127,2.009,2.009,0,0,1,.988,1.787,3.716,3.716,0,0,1-.684,1.977,9.236,9.236,0,0,1-4.258,3.7c-.19.127-.684.3-1.052.494a5.965,5.965,0,0,1-1.66.558C75.815,45.074,75.689,44.58,76.183,44.035Zm-15.726,0a2.687,2.687,0,0,0,.368-.8,3.451,3.451,0,0,1,.8-1.483.331.331,0,0,0,.127-.253,10.119,10.119,0,0,1,.684-1.115c.228-.38.431-.773.621-1.166.558-.925,1.787-2.281,2.9-2.281a.955.955,0,0,1,.558.127,2.023,2.023,0,0,1,.988,1.787,3.811,3.811,0,0,1-.672,1.977,9.266,9.266,0,0,1-4.271,3.7c-.19.127-.672.3-1.052.494V45.01a5.965,5.965,0,0,1-1.66.558C60.089,45.074,59.962,44.58,60.456,44.035Z" transform="translate(-11.382 -15.481)" fill="#004f2d"/>
  <path id="Path_211" data-name="Path 211" d="M145.383,60.128c-.241,0-.558.431-.925,1.229-.988,2.154-2.889,3.143-5.855,3.143-2.408,0-4.689-.925-9.061-4.195a59.129,59.129,0,0,0-9.555-4.8,13.343,13.343,0,0,0-2.218-.494c-.684-.127-1.179-.127-1.115-.19a25.719,25.719,0,0,1,1.66-2.091,22.086,22.086,0,0,0,2.408-3.51,61.056,61.056,0,0,0,4-10.176,91.126,91.126,0,0,1,4.625-11.773,2.364,2.364,0,0,0,.3-.8,9.311,9.311,0,0,1,1.483-2.154,6.639,6.639,0,0,0,1.419-2.154,6.677,6.677,0,0,1,3.269-1.242c1.356,0,2.775,1.977,2.775,3.764a2.071,2.071,0,0,1-.063.621,2.684,2.684,0,0,0-.063.558c0,.3.063.431.253.431a1.352,1.352,0,0,0,.684-.241c.367-.177.431-1.229.431-2.154,0-2.028-1.546-3.384-4-3.827a5.128,5.128,0,0,0-2.154.558c-3.574,1.66-5.246,2.953-8.326,8.009a34.684,34.684,0,0,0-3.143,7.084c-.862,2.585-2.965,8.757-3.333,10.176a23.288,23.288,0,0,1-2.649,5.728c-1.293,2.04-2.408,3.333-2.712,3.333a2.519,2.519,0,0,0-.925.862,2.543,2.543,0,0,1-1.166.862c-.672.19-1.914,1.179-1.914,1.723,0,.3.368.431.672.431a.79.79,0,0,0,.684-.368,1.3,1.3,0,0,1,.925-.3,9.663,9.663,0,0,0,3.447-1.356,2.186,2.186,0,0,1,1.166-.253,11.59,11.59,0,0,1,4.93,1.673,51.941,51.941,0,0,1,5.918,3.7,32.587,32.587,0,0,0,5.981,3.447,16.833,16.833,0,0,0,4.055.418,15.417,15.417,0,0,0,4.866-.672c1.723-.608,3.574-3.016,3.574-4.309C145.751,60.508,145.687,60.128,145.383,60.128Z" transform="translate(7.009 -17.964)" fill="#004f2d"/>
  <path id="Path_212" data-name="Path 212" d="M133.835,30.374h0a1.161,1.161,0,0,0,.494.139,2,2,0,0,0,1.293-.558,3.542,3.542,0,0,0,.862-2.091,1.1,1.1,0,0,0-.127-.494,1.154,1.154,0,0,0-.8-.241,4.111,4.111,0,0,0-1.419.291,2.117,2.117,0,0,0-1.229,1.673A1.412,1.412,0,0,0,133.835,30.374Z" transform="translate(13.26 -16.077)" fill="#004f2d"/>
  <path id="Path_213" data-name="Path 213" d="M165.515,30.38h0a1.424,1.424,0,0,0,.494.127,2.067,2.067,0,0,0,1.293-.558,3.659,3.659,0,0,0,.862-2.091,1.1,1.1,0,0,0-.127-.494,1.084,1.084,0,0,0-.8-.253,3.962,3.962,0,0,0-1.419.3,2.118,2.118,0,0,0-1.229,1.673A1.41,1.41,0,0,0,165.515,30.38Z" transform="translate(21.727 -16.083)" fill="#004f2d"/>
  <path id="Path_214" data-name="Path 214" d="M45.033,24.362a3.99,3.99,0,0,0-1.445-2.294c-.228-.3-.3-.608-.38-.684.076-.152-.456-.836-1.217-1.533l-2.218-.608a9.388,9.388,0,0,0-1.685.076,6.438,6.438,0,0,1-1.673.532,16.049,16.049,0,0,0-4.423,2.142,5.361,5.361,0,0,1-.912.684l-1.305.912L28.71,24.653a35.459,35.459,0,0,0-3.054,4.195l-.228.38a30.654,30.654,0,0,0-3.586,6.336c-2.37,5.956-2.674,6.868-3.358,10.227a2.518,2.518,0,0,0-.152.608,25.519,25.519,0,0,0-.76,6.792,15.157,15.157,0,0,0,.38,2.826l.228,1.305a13.8,13.8,0,0,0,.684,1.685,1.547,1.547,0,0,1,.532.76L20,60.833c1.217,1.217,2.294,2.446,2.674,2.826l1.064.836a2.26,2.26,0,0,0,.684.38,2.259,2.259,0,0,1,.684.38v-.013A13.856,13.856,0,0,0,29,66.307a9.955,9.955,0,0,0,7.173-2.826,13.777,13.777,0,0,1,1.217-1.217,9.9,9.9,0,0,0,1.673-2.9c.076,0,.684-1.217.76-1.217a7.373,7.373,0,0,0,.684-1.749c.076-.532.532-.988.532-1.293a.977.977,0,0,1,.152-.456c.3,0,.684-.912.836-2.066a3.583,3.583,0,0,1,.456-1.293c.3-.38.532-1.761.532-5.652,0-.684-.076-.684-.456-.684a6.446,6.446,0,0,0-1.217.228l-.912.3a37.1,37.1,0,0,1-4.423.456s-.38.076-.836.152l-1.521.228c-.7.076-2.522.532-2.6.532-.836,0-1.141,1-1.141,1.838,0,.684.3,1,.532,1a1.23,1.23,0,0,0,1.141-1.064,1.327,1.327,0,0,1,.38-.76,14.119,14.119,0,0,1,2.066-.38c.076,0,.152.076.228.076h.152a.57.57,0,0,0,.38-.076,7.569,7.569,0,0,1,1.99-.3,21.422,21.422,0,0,0,3.586-.608c.38,0,.608.228.608.988a10.054,10.054,0,0,1-.38,3.13,8.417,8.417,0,0,1-.38,1.369,4.859,4.859,0,0,1-.836,2.37l-2.066,4.195c-.228.38-.38,1.064-.608,1.217a1.038,1.038,0,0,0-.38.684.745.745,0,0,1-.456.532c-.152.076-.3.38-.38.456-.228.228-2.9,2.826-5.5,2.826-2.674,0-3.586-.912-5.259-3.067a13.38,13.38,0,0,1-1.685-3.51,1.663,1.663,0,0,0-.3-.76c-.152-.456-.228-.532-.3-.608-.076,0-.076-.076-.076-.228V55.105c0-.3-.076-.836-.076-1.457a68.963,68.963,0,0,1,.532-8.237c.912-3.206,1.445-4.879,3.054-9.694l.228-.456s.38-.836.76-1.838a18.615,18.615,0,0,1,.912-1.977c.152-.152.3-.3.3-.38a19.6,19.6,0,0,1,2.37-4.575,4.2,4.2,0,0,0,1.141-1.761c0-.152.38-.532.684-.836a10.406,10.406,0,0,1,3.054-2.446c.608-.228,1.064-.3,1.141-.38s.152-.152.228-.152a2.02,2.02,0,0,0,.38.076c.152,0,.228,0,.3-.076a1.238,1.238,0,0,1,.836-.228,4.518,4.518,0,0,0,.836-.228c.3,0,2.37.608,2.294,1.064l.608.76a2.067,2.067,0,0,1,.608.988,9.458,9.458,0,0,0,.228,1.685,7.82,7.82,0,0,1,.3,2.294,10.937,10.937,0,0,1-.76,3.814,18.983,18.983,0,0,1-2.066,4.195.884.884,0,0,0-.3.608c0,.228.076.38.3.38.076,0,.152-.076.228-.076a7.861,7.861,0,0,0,1.445-.76,12.155,12.155,0,0,0,2.826-4.968,20.762,20.762,0,0,0,.532-3.738,3.119,3.119,0,0,0-.076-.836Z" transform="translate(-17.565 -18.188)" fill="#004f2d"/>
  <path id="Path_215" data-name="Path 215" d="M247.731,40.676c.051-.2-.253-.152-.342-.089a4.935,4.935,0,0,1-2.294.9,26.392,26.392,0,0,1-2.813.266c-1.622.1-3.6.165-4.879,1.331a3.864,3.864,0,0,0-1.153,2.7.1.1,0,0,0,.063.127c-.013.025.013.051.076.051a13.992,13.992,0,0,0,2.623-.431,11.565,11.565,0,0,1-4.182.849c.089-.19.19-.367.279-.558.038-.076.862-1.229,1.5-2.129h.013a20.523,20.523,0,0,0,5.411-13.369A22.694,22.694,0,0,0,241.9,26.5a1.906,1.906,0,0,1-.025-.253c-.013-.114-.6.038-.583.215a1.723,1.723,0,0,1,.025.253c.013.089.013.165.025.241a17.409,17.409,0,0,1-1.85,9.479,16.909,16.909,0,0,1-1.381,2.243,4.989,4.989,0,0,1-2.243-2.712,7.687,7.687,0,0,1-.152-3.865,13.3,13.3,0,0,1,1.343-3.776c.329-.621.735-1.2,1.09-1.812a13.077,13.077,0,0,0,1.141-2.408,6.639,6.639,0,0,0,.139-4.347,23.6,23.6,0,0,1,5.132,7.135c1.331,2.839,2.23,6.412.672,9.352a7.98,7.98,0,0,1-4.5,3.6c-.051.013-.291.114-.266.19s.279-.013.317-.025a9.314,9.314,0,0,0,4.537-3.155,7.3,7.3,0,0,0,1.305-4.41v-.013a13.646,13.646,0,0,0-1.128-4.955,24.362,24.362,0,0,0-6.742-9.048c-.089-.076-.608.152-.558.228a5.915,5.915,0,0,1,.659,5.145,11.974,11.974,0,0,1-1.052,2.458c-.367.659-.8,1.267-1.166,1.926a10.691,10.691,0,0,0-1.47,7.629,5.109,5.109,0,0,0,2.687,3.269c.1.051.291-.038.38-.076.025-.013.177-.089.19-.139a.1.1,0,0,0,.051-.051A17.611,17.611,0,0,0,241,34.1a20.884,20.884,0,0,1-2.281,6.121c-.824.811-3.928,4.233-3.979,4.4a4.8,4.8,0,0,1-.253.431,14.594,14.594,0,0,0-1.812-6.45,7.964,7.964,0,0,0-1.229-1.533c-.038-.051-.266-.025-.215.063.938,1.736,2.091,3.548,2.1,5.589h-.025a3.112,3.112,0,0,1-3.092-2.192,6.084,6.084,0,0,1-.1-1.077c-.025-.342-.038-.7-.051-1.039a10.329,10.329,0,0,0-.266-2.154,5.089,5.089,0,0,0-.71-1.635,7.732,7.732,0,0,1,5.12,4.866,5.081,5.081,0,0,1,.051,2.268c-.051.241.418.241.456.025a5.382,5.382,0,0,0-.76-4,8.556,8.556,0,0,0-3.13-2.813,10.6,10.6,0,0,0-2.192-.887c-.152-.038-.444.1-.291.279a6.6,6.6,0,0,1,1.267,4.233c.013.38.025.748.051,1.128a3.881,3.881,0,0,0,.152,1.077,3.339,3.339,0,0,0,1.28,1.635,3.594,3.594,0,0,0,2.268.634c.1-.013.228-.089.2-.2V42.83a10.277,10.277,0,0,0-1.7-5.006,11.51,11.51,0,0,1,2.205,5.589c.1.634.177,1.293.215,1.926a.027.027,0,0,0,.025.025,49.508,49.508,0,0,1-4.993,7.223,37.54,37.54,0,0,1-7.084,7.021l.925-4.625a26.313,26.313,0,0,1,2.028-6.78,5.6,5.6,0,0,0,.558-1.723,22.117,22.117,0,0,1,1.483-3.7,16.879,16.879,0,0,0,1.293-3.269v-.241a3.1,3.1,0,0,0-1.723-.558.981.981,0,0,0-.8.3l-.8.925a12.3,12.3,0,0,0-2.281,4.195c-.051.3-.19.558-.3.558-.241,0-.241-.241.063-1.052a3.933,3.933,0,0,0,.127-.862,7.1,7.1,0,0,0-.862-3.447,2.93,2.93,0,0,0-2.9-1.229c-3.206,0-6.159,3.016-7.274,5.424a7.9,7.9,0,0,1-.621,1.166,24.806,24.806,0,0,0-1.293,3.384,2.774,2.774,0,0,0-.38.748,3.316,3.316,0,0,1-.558.988,24.611,24.611,0,0,0-1.787,2.775c-.494.988-3.333,3.827-4.195,3.827-1.052,0-1.293-.8-1.293-1.85v-.494A8.233,8.233,0,0,1,202.2,50.8c0,.063.672-2.154,1.052-3.333a4.986,4.986,0,0,1,.241-.735,9.91,9.91,0,0,0,.684-3.637v-.558a4.191,4.191,0,0,0-.127-1.052,2.212,2.212,0,0,0-2.218-1.356,4.609,4.609,0,0,0-1.914.494c-.558.241-.988.494-.988.621a1.05,1.05,0,0,1-.558.431c-.317.177-2.028,2.218-2.471,2.712a12.732,12.732,0,0,0-1.356,1.914c-.241.3-4.017,5.791-3.89,5.791a1.767,1.767,0,0,0-.431.621c-.127.3-.3.431-.367.431s-.127-.063-.127-.19v-.241a3.756,3.756,0,0,1,.253-.621c0-.063.177-.494.3-.862a29.236,29.236,0,0,1,1.229-4l.431-1.356c.253-.558.367-1.052.431-1.115a7.161,7.161,0,0,0,.253-1.546,8.987,8.987,0,0,0,.063-1.166,2.277,2.277,0,0,0-.127-.925,4.173,4.173,0,0,0-.431-1.229,2.13,2.13,0,0,0-1.85-.8,6,6,0,0,0-2.344.558l-.684.368a15.987,15.987,0,0,0-4.043,5.018c-.025.025-.063.051-.089.076,0,.19-.367.8-.494.8a2.3,2.3,0,0,0-.621.925,4.012,4.012,0,0,1-.672,1.052,6.358,6.358,0,0,0-1.052,1.723,1.2,1.2,0,0,1-.3.621,1.428,1.428,0,0,0-.3.621,1.825,1.825,0,0,1-.38.684,6.735,6.735,0,0,0-.862,1.419,3.3,3.3,0,0,1-.862,1.179l-1.356,1.115A3.351,3.351,0,0,1,174.5,56.3a2.974,2.974,0,0,1-.684.127c-.114,0-.19-.063-.241-.063a4.146,4.146,0,0,1-.494-.735,2.638,2.638,0,0,1-.19-.988,11.033,11.033,0,0,1,.063-1.293,53.553,53.553,0,0,1,1.419-8.376,22.193,22.193,0,0,0,.621-4.195,1.378,1.378,0,0,0-.063-.558c-.063-.3-.127-.368-.672-.368H173.2c-.608.241-2.281,1.914-2.281,2.471,0,.127-.925,3.447-.925,3.447a.221.221,0,0,1-.063.19,4.554,4.554,0,0,0-.152.6,9.432,9.432,0,0,1-1.331,1.331,2.125,2.125,0,0,1-1.356.494,3.3,3.3,0,0,1-2.344-.925,6.6,6.6,0,0,1-1.356-2.712,6.164,6.164,0,0,1-.367-2.028c.038-.025.241-2.889.241-4,0-.127.076-.3.127-.3s.114-.114.177-.368a1.317,1.317,0,0,1,.19-.431.85.85,0,0,0,.127-.558,1.513,1.513,0,0,1,.19-.735,3.783,3.783,0,0,0,.3-1.546,3.383,3.383,0,0,0-.127-.8l-.241-.621-.494-.368c0-.063-.3-.127-.608-.127l-.621.063c0,.063-1.6.735-1.787,1.356-.063.19-.114.368-.241.368a3.646,3.646,0,0,0-.558,1.052.486.486,0,0,1-.127.368,11.789,11.789,0,0,0-.3,3.269,27.981,27.981,0,0,0,.862,4.435c-.063.127-.367,1.179-.367,1.052,0-.063-.621,1.85-.684,1.85,0-.063-.862,1.723-.862,1.723s-1.052,1.914-.988,1.914A3.646,3.646,0,0,0,156.5,51.6a.534.534,0,0,1-.127.253,10.424,10.424,0,0,0-.8,1.419c-.063,0-.127.063-.127.19a15.518,15.518,0,0,0-.988,1.723c-.241.241-1.052,1.723-1.293,1.787-.114.3-.8.494-.8.494-.621.621-.862-.672-.862-4a19.474,19.474,0,0,1,.3-3.206.442.442,0,0,0-.127-.3c-.063-.063-.127,0,0-.127a4.113,4.113,0,0,0,.19-1.115l.063-.988V42.539a4.442,4.442,0,0,0-.127-1.356,4.173,4.173,0,0,0-.431-1.229,2.13,2.13,0,0,0-1.85-.8c-.558,0-1.6.177-1.723.558-.063.241-.494.241-.672.368a16.021,16.021,0,0,0-4.068,5.044.431.431,0,0,0-.076.076c0,.19-.367.8-.494.8a2.27,2.27,0,0,0-.608.925,3.755,3.755,0,0,1-.684,1.052,6.691,6.691,0,0,0-1.052,1.723,1.3,1.3,0,0,1-.3.621,1.427,1.427,0,0,0-.3.621,1.989,1.989,0,0,1-.367.684,6.734,6.734,0,0,0-.862,1.419,3.156,3.156,0,0,1-.862,1.179L136.1,55.338a3.351,3.351,0,0,1-1.723,1.052,3,3,0,0,1-.672.127c-.114,0-.177-.063-.241-.063a4.144,4.144,0,0,1-.494-.735,2.914,2.914,0,0,1-.19-.988,11.033,11.033,0,0,1,.063-1.293,53.551,53.551,0,0,1,1.419-8.376,22.192,22.192,0,0,0,.621-4.195,1.378,1.378,0,0,0-.063-.558c-.063-.3-.127-.368-.684-.368H133.1c-.621.241-2.281,1.914-2.281,2.471,0,.127-.925,3.447-.925,3.447a.221.221,0,0,1-.063.19,6.309,6.309,0,0,0-.3,1.546l-.19,2.471v.19c-.063.684-.127,1.293-.127,1.787a6.081,6.081,0,0,0,.621,3.269,4.555,4.555,0,0,1,.367.8c.063.177.19.3.241.3.127,0,.19.127.19.253,0,.19.684.862,1.293,1.229v-.013a2.428,2.428,0,0,0,1.356.3,1.831,1.831,0,0,0,1.229-.3,8.364,8.364,0,0,1,1.483-.8c.672-.241,1.166-.558,1.229-.8a1.089,1.089,0,0,1,.494-.431c.862-.3,2.471-2.522,2.965-4.195a2.9,2.9,0,0,1,.494-.988,4.6,4.6,0,0,0,.988-1.723c.19-.253.3-.494.431-.558a7.906,7.906,0,0,0,.621-1.052l.228-.418.013-.013c.063-.19.241-.368.3-.558.558-.621,1.052-1.546.925-1.723a.322.322,0,0,1,.241-.253,1.61,1.61,0,0,0,.558-.735c.431-1.229,2.344-3.51,3.447-3.51.241,0,.494.862.494,1.66,0,.19-.063.3-.063.494,0-.127-.735,5.551-.862,6.1.063,0,.063,0,.063.063.013.013.038.025.051.051a.24.24,0,0,1-.051.329,15.429,15.429,0,0,0-.19,2.649c-.063.862-.063,1.483-.063,1.85,0,.8.063.988.063,1.787a2.757,2.757,0,0,0,.19,1.052c0,.19.3,1.052.3,1.115s.558.608.558.735a11.534,11.534,0,0,0,1.356,1.115c0,.19.988.19,1.052.19a4.916,4.916,0,0,0,1.85-1.179,9.522,9.522,0,0,0,.988-1.356c.684-.672.621-.368.988-1.052a12.593,12.593,0,0,1,.684-1.293c.431-.862.988-1.85,1.179-2.218a4.963,4.963,0,0,1,.431-.621,15.281,15.281,0,0,1,.988-1.787c.431-.8.8-1.673,1.229-2.471.063,0,.925-2.218.988-2.218a.12.12,0,0,1,.127.127,6.345,6.345,0,0,0,3.016,3.7,5.942,5.942,0,0,0,2.649.494,3.824,3.824,0,0,0,2.471-.684c.063-.063.114-.127.177-.19l-.114,1.47v.19c-.063.684-.127,1.293-.127,1.787a6.073,6.073,0,0,0,.608,3.269,3.791,3.791,0,0,1,.367.8c.063.177.19.3.253.3.127,0,.177.127.177.253,0,.19.672.862,1.293,1.229V57.86a2.4,2.4,0,0,0,1.356.3,1.831,1.831,0,0,0,1.229-.3,10.405,10.405,0,0,1,1.483-.8c.684-.241,1.166-.558,1.229-.8a1.089,1.089,0,0,1,.494-.431c.862-.3,2.471-2.522,2.965-4.195a2.9,2.9,0,0,1,.494-.988,4.6,4.6,0,0,0,.988-1.723c.19-.253.3-.494.431-.558a7.911,7.911,0,0,0,.621-1.052l.228-.393c0-.013.013-.013.025-.013.063-.19.253-.368.3-.558,0-.063,1.723-2.775,1.723-2.712.431-1.229,2.344-3.51,4.068-3.51.241,0,.494.862.494,1.673,0,.177-.063.3-.063.494-.063.431-.19.862-.241,1.293a7.306,7.306,0,0,1-.3,1.179l-.672,1.914c-.19.494-.3,1.052-.494,1.546a6.642,6.642,0,0,0-.558,1.6,7.177,7.177,0,0,1-.367,1.115,3.437,3.437,0,0,0-.3.988,3.448,3.448,0,0,1-.253.8l-.431,1.546a8.08,8.08,0,0,1-.367,1.66,9.009,9.009,0,0,0-.494,2.154.746.746,0,0,0,.127.494c.19.3.431.431.988.558l.558.177a2.432,2.432,0,0,0,2.04-1.419,33.372,33.372,0,0,1,3.384-6.716,38.362,38.362,0,0,1,4.068-6.159,17.133,17.133,0,0,1,1.052-1.483c.063,0,1.419-1.483,1.419-1.483a5.108,5.108,0,0,0,.925-.431,2.33,2.33,0,0,1,.988-.558c.253,0,.3.253.3.735v.38a10.88,10.88,0,0,1-.3,2.028,11.4,11.4,0,0,1-.494,2.04,3.436,3.436,0,0,0-.3.988c0,.177-.114.368-.431.988a11.436,11.436,0,0,0-1.115,5.424,4.018,4.018,0,0,0,.127,1.166c0,.063.063.063.063.127.177.988.241,1.115.862,1.609a5.186,5.186,0,0,0,3.206,1.293,2.73,2.73,0,0,0,1.85-.735c1.914-1.914,2.218-2.281,2.218-2.408a2.184,2.184,0,0,1,.608-.862,7.893,7.893,0,0,0,.988-1.356l.253-.431c-.013.127-.051.253-.063.38,0,2.471,1.356,2.9,2.522,4.258a2.194,2.194,0,0,0,1.787.735c.431,0,.862-.063,1.293-.063.114,0,.114-.19.241-.19.608,0,3.32-2.471,4.74-4.321l.367-.494-.127.988a12.138,12.138,0,0,1-.431,2.344,19.72,19.72,0,0,0-.672,3.51,3.138,3.138,0,0,1-.3,1.229,1.284,1.284,0,0,0-.19.672c0,.558-.925,1.293-1.977,1.483-.3.063-.558.19-.558.317,0,.177-3.016,1.229-5.487,2.458a3.818,3.818,0,0,0-.925.621,11.165,11.165,0,0,0-3.333,3.51,9.676,9.676,0,0,0-1.052,3.89,2.743,2.743,0,0,0,1.66,2.712,7.6,7.6,0,0,0,3.447.8,3.859,3.859,0,0,0,2.9-.8,2.388,2.388,0,0,1,.735-.431c.558,0,4.372-4.435,4.131-4.435-.063,0,.355-.431.608-.988a3.755,3.755,0,0,1,.684-1.052,4.961,4.961,0,0,0,.494-1.166,4.806,4.806,0,0,1,.8-1.483,1.172,1.172,0,0,0,.367-.735,26.538,26.538,0,0,1,.988-3.7l.127-.3a34.155,34.155,0,0,0,7.527-7.211l.608-.735c.3-.368.558-.862.988-1.356a27.664,27.664,0,0,0,3.776-5.7,12.718,12.718,0,0,0,6.286-1.876,8.378,8.378,0,0,0,.988-.659l.038-.025c.215-.177-.127-.139-.241-.063a11.115,11.115,0,0,1-1.026.684l-.025.013a10.612,10.612,0,0,1-4.043,1,3.481,3.481,0,0,1,.938-2.332,4.039,4.039,0,0,1,2.053-.95c1.774-.368,3.612-.228,5.386-.545a6.258,6.258,0,0,0,2.116-.722,10.1,10.1,0,0,1-2.851,4.473,7.573,7.573,0,0,1-4.942,2.154,6.051,6.051,0,0,1-3.092-.862c-.177-.1-.507.2-.279.329a6.568,6.568,0,0,0,5.753.393,10.063,10.063,0,0,0,4.549-3.827,12,12,0,0,0,1.432-3.308ZM217.583,64.044a7.05,7.05,0,0,0-.367,1.546,9.164,9.164,0,0,1-.431,1.609l-.367.862a22.817,22.817,0,0,1-1.85,3.637,1.488,1.488,0,0,0-.253.558,10.286,10.286,0,0,1-2.965,2.953,5.07,5.07,0,0,1-3.637-.063,2.02,2.02,0,0,1-.862-.862,2.7,2.7,0,0,1-.127-1.052,4.95,4.95,0,0,1,.558-2.585,3.3,3.3,0,0,0,.558-1.115,3.73,3.73,0,0,1,.8-1.179,12.921,12.921,0,0,1,2.712-2.408c0,.19,1.483-.988,1.723-.988.063,0,1.787-.735,1.977-.735a4.181,4.181,0,0,0,1.419-.621,1.988,1.988,0,0,1,1.052-.431c.19,0,.253.063.253.253h0A1.769,1.769,0,0,1,217.583,64.044ZM221.271,45l-.558,2.585a6.486,6.486,0,0,1-.735,1.723h-.013a3.614,3.614,0,0,0-.494.988,29.685,29.685,0,0,1-2.408,3.333,20.172,20.172,0,0,1-2.9,2.281c-.431.241-.558.241-.988-.177a2.939,2.939,0,0,1-.862-2.281,15.443,15.443,0,0,1,.3-2.408A16.247,16.247,0,0,1,213.6,47.6c.494-.925,1.419-4.195,2.471-5.487a1.711,1.711,0,0,0,.367-.8,6.092,6.092,0,0,1,2.408-2.091c1.179,0,2.1.3,2.649,2.585a4.521,4.521,0,0,1,.127.925A9.949,9.949,0,0,1,221.271,45Z" transform="translate(12.264 -18.408)" fill="#004f2d"/>
</svg>
