<svg xmlns="http://www.w3.org/2000/svg" width="671.589" height="733.041" viewBox="0 0 671.589 733.041">
  <g id="logo" transform="translate(-22.33 -16.337)">
    <g id="Group_126" data-name="Group 126" transform="translate(182.665 214.78)">
      <path id="Path_178" data-name="Path 178" d="M155.085,201.222a315.134,315.134,0,0,0,2.906-53.759c-.081-1.372-7.911-.161-7.83,2.1A230.271,230.271,0,0,1,112.949,281.3,216.549,216.549,0,0,1,93.98,306.077c-13-9.364-22.44-22.279-26.234-38.1-4.036-16.709-2.1-34.467,2.583-50.854a179.154,179.154,0,0,1,22.2-48.028c5.085-7.83,11.059-15.014,16.548-22.521a175.3,175.3,0,0,0,17.839-30.27c8.153-18.162,11.543-38.019,7.023-56.746a313.051,313.051,0,0,1,59.006,99.689c14.126,38.907,21.633,86.855-2.26,123.582-14.449,22.2-38.342,35.194-63.446,41.813-.726.161-3.955,1.049-3.552,2.341.323,1.211,3.632.4,4.278.242,23.732-6.3,47.221-17.274,63.446-36.243,13.561-15.9,20.5-35.759,22.2-56.423,1.776-22.44-2.26-45.042-8.96-66.352-7.265-23.409-17.92-45.687-30.593-66.594-13.238-21.875-28.9-42.539-47.3-60.378-1.211-1.13-8.395,1.049-7.668,2.422,12.108,21.471,11.3,45.768,2.5,68.289a157.691,157.691,0,0,1-16.628,30.835c-5.57,8.153-12.027,15.66-17.6,23.893-18.969,27.768-34.225,64.172-28.413,98.4,3.31,19.534,14.772,35.678,31.4,46.253,1.7,1.13,5.973-.242,7.265-1.614a224.093,224.093,0,0,0,39.633-59.652,272.458,272.458,0,0,1-39.553,81.123,230.261,230.261,0,0,1-36.485,39.714c-1.372,1.211,1.211,1.372,1.857,1.372a9.4,9.4,0,0,0,5.247-1.857C117.711,327.952,146.205,265.071,155.085,201.222Z" transform="translate(67.435 -40.921)" fill="#015c31"/>
      <path id="Path_179" data-name="Path 179" d="M100.124,104.561c-.888-.646-4.6.161-3.632,1.534,20.018,28.333,43.992,57.634,47.786,93.393a14.519,14.519,0,0,1-4.682.888,50.182,50.182,0,0,1-9.848-.081,57.421,57.421,0,0,1-44.315-30.351c-2.744-5.489-3.632-11.785-4.682-17.839-1.211-6.377-2.179-12.754-3.31-19.131-2.1-12.35-4.359-24.781-8.556-36.566A84.879,84.879,0,0,0,48.787,64.2c43.1,7.83,89.034,33.337,105.582,75.634a87.321,87.321,0,0,1,5.489,39.391c-.161,1.534,3.794.726,3.955-.484,2.179-24.135-5.65-47.3-20.987-66.029-15.256-18.566-36.243-32.126-58.441-41.006A171.251,171.251,0,0,0,45.477,61.215c-.565-.081-4.2.726-3.067,1.776,21.068,18.969,26.88,46.333,31.4,73.132,1.13,6.7,2.179,13.4,3.471,20.1,1.292,6.619,2.664,12.754,6.215,18.646a58.55,58.55,0,0,0,27.122,23.247,60.456,60.456,0,0,0,19.938,4.682c5.65.323,11.866.242,16.951-2.422.4-.242.807-.565.726-1.049-3.067-31-21.391-57.23-39.23-82.092,24.862,24.377,39.876,57.8,49.158,90.971,2.987,10.736,5.489,21.633,7.507,32.611.242,1.291,4.2.323,3.955-1.049-7.265-39.311-20.019-79.59-45.284-111.232A128.473,128.473,0,0,0,100.124,104.561Z" transform="translate(-42.193 102.557)" fill="#015c31"/>
      <path id="Path_180" data-name="Path 180" d="M247.628,81.762c-13.238,6.3-29.059,4.924-43.185,3.148-15.983-2.018-31.723-5.65-47.705-7.184-14.045-1.372-28.978-1.372-42.055,4.843a42.145,42.145,0,0,0-15.74,12.673,56.384,56.384,0,0,0-8.233,15.66c-.484,1.372-1.776,3.632-.888,5,1.049,1.534,6.3,1.372,8.072,1.614,3.471.484,7.023.807,10.494,1.049,5.57.4,11.059.484,16.628.4C105,121.96,84.413,121.4,65.121,116.31a5.651,5.651,0,0,0-4.117.646c-.484.323-2.018,1.534-.646,1.857,31,8.153,65.141,5.57,95.492-4.924a87.219,87.219,0,0,0,11.543-4.44,5.573,5.573,0,0,0,.646-.242h0a2.867,2.867,0,0,0,.726-.323c3.31-1.614-1.211-2.26-2.825-1.534-5.085,2.179-10.332,4.036-15.66,5.731-17.678,4.52-36.647,3.471-54.647.807-.484-2.26,1.7-6.135,2.5-8.072a51.414,51.414,0,0,1,4.762-8.8,38.45,38.45,0,0,1,11.059-10.9c8.718-5.57,19.373-6.538,29.463-6.215,24.135.726,47.625,8.072,71.76,9.2a80.91,80.91,0,0,0,29.866-3.713c-22.6,40.764-72.648,75.15-120.6,63.93A82.113,82.113,0,0,1,87.238,128.9c-1.292-1.211-6.78.969-5.489,2.179,19.776,18.646,46.252,25.992,72.971,22.036,26.315-3.955,50.853-17.355,70.146-35.355a132.244,132.244,0,0,0,27.364-35.678C253.2,80.228,247.951,81.6,247.628,81.762Z" transform="translate(82.329 214.148)" fill="#015c31"/>
    </g>
    <g id="Group_127" data-name="Group 127" transform="translate(61.627 549.138)">
      <path id="Path_181" data-name="Path 181" d="M27.616,91.2a5.384,5.384,0,0,1,1.453-.807,144.287,144.287,0,0,1,17.839-7.023c3.875-1.13,5.812-1.292,7.426-.646a2.794,2.794,0,0,1,1.534,1.372,29.961,29.961,0,0,1,1.776,6.135c2.018,8.637.888,12.834-3.955,15.418-2.422,1.292-8.556,2.179-8.96,1.372a6.681,6.681,0,0,0-2.583-.646c-1.7-.161-3.229-.969-5.812-2.825-3.713-2.744-7.023-6.377-7.426-7.83l-.161-.323c-.161-.323-.4-.565-.565-.565C27.132,94.829,26.889,92,27.616,91.2Zm3.39,5.408a12.232,12.232,0,0,0,7.507,5.812c1.857.565,3.632.969,3.955.726a8.492,8.492,0,0,1,2.664-.081c1.7.081,2.664-.161,5.731-1.776,4.359-2.26,5.166-3.31,5.166-7.588a14.068,14.068,0,0,0-1.13-5.973,3.93,3.93,0,0,0-.646-.807c-.323-.161-4.359,1.049-9.041,2.825a82.5,82.5,0,0,1-9.283,3.067A11.817,11.817,0,0,0,32.7,94.1L30.28,95.313Z" transform="translate(-27.198 -82.343)" fill="#015c31"/>
      <path id="Path_182" data-name="Path 182" d="M37.945,105.838a31.874,31.874,0,0,1,2.987-2.1,25.78,25.78,0,0,1,2.906-1.776,11.2,11.2,0,0,0,2.825-1.7,14.49,14.49,0,0,0-2.583-3.39C42.95,95.506,41.82,94.3,40.69,93c-.807-.888-3.632-.4-6.861,1.453-2.26,1.292-4.843,1.453-5.166.484-.161-.484,6.861-3.552,7.588-3.067a5.2,5.2,0,0,0,2.583-.646c1.857-.646,11.947-3.39,13.319-3.31a16.621,16.621,0,0,0,4.117-.646,25,25,0,0,1,6.3-.565c2.422.161,2.906.4,3.713,1.534a2.993,2.993,0,0,1,.4,2.987L66.2,93.084l-4.036,3.067c-.969.646-1.776,1.292-2.422,1.776A5.427,5.427,0,0,1,57.8,98.977c-.242-.081-.969.4-1.7.888a18.99,18.99,0,0,1-1.7,1.292,3.471,3.471,0,0,1-2.179.888H51.99a1.393,1.393,0,0,0-.323,1.292c.081.888-.161,1.292-.484,1.211-1.614-1.049-2.422-.726-7.184,2.26-5.57,3.471-7.265,3.955-8.314,2.5l-.646-.969Zm7.184-10.009c.969,1.211,2.018,2.5,2.987,3.713.969-.646,2.1-1.292,3.067-1.937A23.411,23.411,0,0,1,54.9,95.587a22.635,22.635,0,0,0,3.31-2.018c2.583-1.7,5.57-3.955,6.135-4.762.242-.323.323-.807.161-.969-.4-.4-3.875-.4-5.973,0a17.169,17.169,0,0,1-2.825.484c-1.13-.081-13.561,2.987-13.48,3.31A24.173,24.173,0,0,0,45.129,95.829Z" transform="translate(-16.863 -51.62)" fill="#015c31"/>
      <path id="Path_183" data-name="Path 183" d="M31.665,104.785c.081-.323.727-.969,1.857-1.857a73.326,73.326,0,0,1,8.153-5.57c1.292-.807,3.31-2.341,4.52-3.148a46.769,46.769,0,0,1,8.476-4.843c.969-.323,1.292-.161,2.1,1.049l.969,1.372c-1.614,1.292-3.31,2.5-4.843,3.794-5,3.955-14.368,10.09-16.305,10.655a2.719,2.719,0,0,0-.969.484,1.334,1.334,0,0,0-.4,1.857,22.6,22.6,0,0,0,4.036,3.31,5.4,5.4,0,0,1,1.534,1.13,6.909,6.909,0,0,0,1.937,1.7c.484.323.888.484,1.049.646.242.323.161.484.081.807a2.685,2.685,0,0,1-.242.484c-.484.323-1.13-.081-2.179-1.372-.646-.726-1.13-1.292-1.292-1.211-.323.242-7.184-5.893-8.072-7.507A2.669,2.669,0,0,1,31.665,104.785Z" transform="translate(4.027 -33.696)" fill="#015c31"/>
      <path id="Path_184" data-name="Path 184" d="M44.124,115.37c.726-.807,1.7-1.776,2.583-2.664a19.7,19.7,0,0,1,2.5-2.26,13.427,13.427,0,0,0,2.5-2.179,12.936,12.936,0,0,0-3.148-2.825c-1.372-1.13-2.664-2.1-4.036-3.229-.969-.726-3.632.323-6.458,2.664-2.018,1.7-4.52,2.341-4.924,1.453-.242-.4,6.135-4.682,6.942-4.44.242.161,1.453-.484,2.422-1.13,1.7-.969,11.139-5.489,12.512-5.65a18.707,18.707,0,0,0,3.955-1.372,22.852,22.852,0,0,1,6.054-1.7c2.422-.323,2.987-.161,3.875.807a3.015,3.015,0,0,1,.888,2.906l-.161,1.937-3.39,3.713c-.807.807-1.534,1.614-2.1,2.179-.888.888-1.614,1.453-1.7,1.372-.242,0-.888.565-1.534,1.211a13.721,13.721,0,0,1-1.453,1.534,3.734,3.734,0,0,1-2.018,1.292c-.161,0-.161,0-.242.081-.242.161-.323.646-.081,1.292.242.807.081,1.291-.242,1.291-1.776-.726-2.5-.242-6.7,3.552-4.843,4.44-6.458,5.166-7.749,3.955l-.807-.807Zm5.247-11.139c1.13,1.049,2.422,2.1,3.552,3.148.807-.807,1.776-1.614,2.664-2.422a17.138,17.138,0,0,1,3.229-2.583,29.169,29.169,0,0,0,2.906-2.583c2.26-2.179,4.762-4.843,5.166-5.812a.841.841,0,0,0,0-.969c-.484-.323-3.875.242-5.812,1.049a19,19,0,0,1-2.664.969c-1.13.081-12.834,5.408-12.673,5.65A37.382,37.382,0,0,0,49.371,104.231Z" transform="translate(14.816 -14.819)" fill="#015c31"/>
      <path id="Path_185" data-name="Path 185" d="M51.284,127.455a.911.911,0,0,1-.888-.242,10.286,10.286,0,0,1-1.857-2.744c-1.211-2.341-1.13-4.52.484-10.655.969-3.632.969-4.6,0-5.408-1.13-.969-1.453-1.13-2.1,0l-.242.323c-.323.4-.565.565-.726.4-.242-.161-1.937,1.372-4.2,4.036a2.281,2.281,0,0,1-2.018.969l-.888-.323a9.384,9.384,0,0,1-2.1-.888c-.161-.161.4-.888,1.372-2.1a123.8,123.8,0,0,1,9.848-10.009c7.83-7.023,8.395-7.346,10.171-5.973,2.018,1.534,7.265,5,6.3,4.117a17.5,17.5,0,0,1,2.018,2.341,6.9,6.9,0,0,1-.081,8.395,5.506,5.506,0,0,1-.969.969c-1.453,1.13-6.135,1.534-9.2.646-1.937-.565-2.987-.726-3.229-.323a.889.889,0,0,0-.081.807,27.857,27.857,0,0,1-1.211,8.637c-.888,2.1-1.13,5.893-.484,6.458C51.526,127.132,51.526,127.374,51.284,127.455Zm4.843-17.516c1.937.081,3.794-.484,4.6-1.453a4.01,4.01,0,0,1,1.534-1.049,1.693,1.693,0,0,0,.646-.484,8.711,8.711,0,0,0,1.534-5.166c0-1.049-.484-1.534-1.776-2.664-3.148-2.664-3.148-2.664-8.8,2.422-1.7,1.534-3.31,2.825-3.713,2.825-.565.081-.565.323-.242.565.4.323.323.4-.242.323s-.727,0-.727.565c0,.161.242.484.646.807C51.122,108,54.674,109.939,56.127,109.939Z" transform="translate(40.186 1.509)" fill="#015c31"/>
      <path id="Path_186" data-name="Path 186" d="M39.748,118.429c.081-.161.323-.323.565-.646a3.894,3.894,0,0,1,1.937-1.292,2.2,2.2,0,0,0,1.292-.888,11.116,11.116,0,0,1,1.372-1.211c.4-.323,2.26-2.018,3.875-3.713a17.369,17.369,0,0,1,3.229-2.987c.161.081.565-.081.807-.484a22.554,22.554,0,0,1,3.31-3.39c1.7-1.453,2.987-2.744,2.906-2.987-.081-.081,0-.161,0-.242a5.334,5.334,0,0,1,1.372-1.211,6.2,6.2,0,0,0,1.7-1.776.865.865,0,0,1,.161-.484,1.311,1.311,0,0,1,1.776-.4c.4.242.565.484.4.726-.081.161.242.726.726,1.211.807.726.807,1.614.323,5.65l-.807,6.135a6.032,6.032,0,0,1-.484,1.776,8.29,8.29,0,0,0-.646,2.5c-.161.969-.565,3.31-.969,5.166s-.646,3.39-.4,3.552,1.049-.323,1.937-1.049a77.858,77.858,0,0,0,8.395-7.83,5.294,5.294,0,0,1,1.534-1.453,31.674,31.674,0,0,0,5.812-5.328,1.462,1.462,0,0,1,1.292-.726,1.3,1.3,0,0,1,.726.242c.4.242.484.565,0,1.211a21.442,21.442,0,0,1-3.148,3.229c-2.26,2.018-3.875,3.39-6.942,6.458-1.372,1.292-2.744,2.583-3.229,2.906a48.094,48.094,0,0,0-7.1,6.861c-.969,1.453-1.372,1.776-2.26,1.13a5.9,5.9,0,0,1-.888-.726l-1.049-1.049.4-3.552a13.856,13.856,0,0,1,.969-4.359c.242-.4.323-.807.242-.888a11.372,11.372,0,0,1,.242-2.825c.242-1.453.726-4.52.969-6.78a20.854,20.854,0,0,1,.807-4.682,2.22,2.22,0,0,0-.081-2.26c-.081-.081-.807.484-1.534,1.211a9.62,9.62,0,0,1-1.937,1.7c-.726.323-6.861,5.973-9.283,8.637a48.118,48.118,0,0,1-3.955,3.471L41.121,119.4a1.2,1.2,0,0,1-1.13-.161A.524.524,0,0,1,39.748,118.429Z" transform="translate(60.843 17.881)" fill="#015c31"/>
      <path id="Path_187" data-name="Path 187" d="M57.22,128.811a30.709,30.709,0,0,1,1.614-3.31,31.557,31.557,0,0,1,1.614-2.987,23.137,23.137,0,0,0,1.7-2.825,17.2,17.2,0,0,0-3.955-1.7c-1.614-.646-3.229-1.13-4.843-1.7-1.13-.323-3.31,1.453-5.247,4.6-1.372,2.26-3.471,3.632-4.2,2.987-.4-.323,4.278-6.458,5.085-6.458.323.081,1.211-.888,1.937-1.857,1.292-1.534,8.718-8.8,10.009-9.364a15.553,15.553,0,0,0,3.229-2.583,21.944,21.944,0,0,1,5.166-3.552c2.179-1.049,2.744-1.13,3.955-.484a2.871,2.871,0,0,1,1.776,2.422l.484,1.857-2.018,4.6c-.484,1.049-.888,2.018-1.292,2.744a7.114,7.114,0,0,1-1.211,1.937c-.242.081-.646.888-1.049,1.614a14.939,14.939,0,0,1-.888,1.937c-.565,1.13-1.049,1.7-1.453,1.857-.161.081-.161.081-.161.161-.161.242-.081.726.323,1.292.484.726.484,1.211.242,1.292-1.937-.081-2.5.565-5.166,5.489-3.148,5.812-4.44,7.023-6.054,6.3l-1.049-.484Zm1.372-12.269c1.453.646,2.987,1.211,4.44,1.776.565-1.049,1.211-2.1,1.7-3.148a19.455,19.455,0,0,1,2.26-3.552c.4-.646,1.211-1.937,1.937-3.39,1.372-2.744,2.906-6.135,2.987-7.184.081-.4-.081-.807-.323-.888-.565-.161-3.632,1.534-5.166,2.906a14.906,14.906,0,0,1-2.26,1.776c-.969.484-10.332,9.283-10.171,9.525A31.87,31.87,0,0,0,58.593,116.542Z" transform="translate(90.753 36.719)" fill="#015c31"/>
      <path id="Path_188" data-name="Path 188" d="M48.19,127.17a8.029,8.029,0,0,1,.242-4.6,2.151,2.151,0,0,1,.807-1.13c.565-.323.888-.4,1.049-.323.242.081.242.4-.161.969-.807,1.13-.565,4.6.484,5.893a1.946,1.946,0,0,0,.969.888c.323.081.807.081,1.453.161a4.3,4.3,0,0,0,2.26-.323l1.372-1.211a11.888,11.888,0,0,0,1.7-3.148,20.271,20.271,0,0,0,1.372-4.762,6.337,6.337,0,0,0-1.049-3.148,6.387,6.387,0,0,1-.969-1.937c.081-.161-.081-.323-.323-.484-1.534-.646-2.583-5.327-1.7-7.588,1.292-3.229,7.345-6.78,9.929-5.731a3.431,3.431,0,0,0,1.614.242,1.991,1.991,0,0,1,1.614.161,5.824,5.824,0,0,1,2.744,2.179,3.737,3.737,0,0,1,.484,3.229,4.1,4.1,0,0,1-2.422,2.179c-.484.242-.888.4-1.049.323-.242-.081.161-.888.969-2.987s.484-3.471-1.049-4.036a4.286,4.286,0,0,0-2.179-.323c-1.049,0-1.7.323-3.471,2.179a14.318,14.318,0,0,0-2.987,4.44,5.238,5.238,0,0,0-.4,3.39l.727,2.179a10.859,10.859,0,0,0,1.211,2.341c2.5,3.713,2.825,5.893,1.614,9.041a5.975,5.975,0,0,1-2.906,3.31,10.1,10.1,0,0,1-3.309,1.614c-2.906.323-4.843.161-6.215-.4A4.037,4.037,0,0,1,48.19,127.17Z" transform="translate(119.64 46.109)" fill="#015c31"/>
      <path id="Path_189" data-name="Path 189" d="M58.307,132.794c-3.148-2.664-3.713-3.713-4.2-6.7a10.129,10.129,0,0,1,.242-4.6c.161-.726.4-1.7.726-2.825a38.478,38.478,0,0,1,2.5-6.377,12.148,12.148,0,0,0,1.292-2.341,4.771,4.771,0,0,1,.969-1.372c.323-.323,1.13-.969,1.534-1.453a11.267,11.267,0,0,1,5-3.39c3.552-1.372,4.6-1.614,7.184-1.372a13.715,13.715,0,0,1,2.26.323,3.572,3.572,0,0,1,2.422,1.7,5.8,5.8,0,0,1,.161,3.794c-.484,2.26-1.776,4.762-2.906,4.682-.484,0-1.049,0-1.13-.161a18.52,18.52,0,0,1,1.13-3.31,25.37,25.37,0,0,0,.888-2.664c.4-2.018-.081-2.906-1.776-3.31-3.471-.807-8.233,2.5-10.978,8.718-.807,1.7-1.857,3.471-2.179,4.036a29.72,29.72,0,0,0-1.7,5.57c-.888,3.875-.969,4.843-.484,6.942.565,2.422,1.292,3.552,2.341,3.794a3.059,3.059,0,0,0,1.211,0,5.154,5.154,0,0,0,2.26-1.211c2.26-2.422,4.682-5.247,5.247-6.7l.646-1.614-1.211-.646a19.318,19.318,0,0,0-4.2-1.211l-.646-.161c-1.453-.323-2.179-.807-2.1-1.13s.484-.484,1.372-.484a11.072,11.072,0,0,1,2.341.323,31.019,31.019,0,0,1,6.215,2.018,1.3,1.3,0,0,1,.807,1.614,4.256,4.256,0,0,1-1.13,1.857c-.807.807-1.372,1.614-1.211,1.857a10.008,10.008,0,0,1-1.534,2.26,23.326,23.326,0,0,0-1.776,2.5c-.081.323-.565.646-1.13.969a8.822,8.822,0,0,0-2.018,1.534,2.954,2.954,0,0,1-2.906.888A15.505,15.505,0,0,1,58.307,132.794Z" transform="translate(161.992 58.648)" fill="#015c31"/>
      <path id="Path_190" data-name="Path 190" d="M78.245,133.992a1.1,1.1,0,0,1-.888.323A10.458,10.458,0,0,1,74.29,133.1c-2.26-1.211-3.471-3.148-5.489-9.121-1.211-3.552-1.7-4.359-2.987-4.52-1.453-.161-1.857-.081-1.776,1.13v.4c-.081.484-.161.726-.4.726-.323,0-.807,2.26-1.292,5.731a2.147,2.147,0,0,1-1.13,1.937l-.888.161a12.909,12.909,0,0,1-2.179.4c-.161,0-.161-.969,0-2.5a125.534,125.534,0,0,1,2.664-13.722c2.664-10.09,2.906-10.736,5.166-10.574,2.5.161,8.718.161,7.507,0a25.471,25.471,0,0,1,3.067.807,6.946,6.946,0,0,1,4.52,7.1,8.158,8.158,0,0,1-.242,1.372c-.565,1.776-4.278,4.682-7.265,5.57-1.937.565-2.825,1.049-2.906,1.534a1.33,1.33,0,0,0,.4.726c.969.969,3.39,6.054,3.794,7.83.4,2.179,2.26,5.57,3.148,5.65C78.245,133.588,78.326,133.83,78.245,133.992ZM72.514,116.8a5.955,5.955,0,0,0,3.067-3.713,4.348,4.348,0,0,1,.646-1.7,6.4,6.4,0,0,0,.323-.726,9.3,9.3,0,0,0-1.534-5.166c-.565-.888-1.211-1.049-2.987-1.211-4.117-.484-4.117-.484-5.973,6.942a17.909,17.909,0,0,1-1.534,4.44c-.4.323-.242.565.161.565.484.081.484.161-.081.4-.484.242-.646.4-.323.807a2.535,2.535,0,0,0,.969.323C67.348,117.928,71.384,117.525,72.514,116.8Z" transform="translate(190.808 64.715)" fill="#015c31"/>
      <path id="Path_191" data-name="Path 191" d="M67.4,143.845c-1.372-.323-4.036-2.664-4.762-4.359a17.927,17.927,0,0,1-.646-6.135,10.877,10.877,0,0,1,.242-2.987l.969-3.955c.726-2.987,2.906-6.7,5.085-8.314a17.04,17.04,0,0,1,4.036-1.937,10.686,10.686,0,0,1,3.794-.807,7.969,7.969,0,0,1,3.955,1.211c2.906,1.534,4.44,3.229,4.359,5.166a38.585,38.585,0,0,1-2.422,11.866c-.646,1.453-1.534,3.39-1.776,4.2a12.089,12.089,0,0,1-5.893,5.812,7.039,7.039,0,0,1-3.229.726A13.028,13.028,0,0,1,67.4,143.845Zm5.247-1.211c2.422-1.049,3.31-2.018,5.085-4.682a28.75,28.75,0,0,0,4.2-12.754l.484-4.359-.726-1.211a4.724,4.724,0,0,0-2.018-1.614,6.406,6.406,0,0,1-2.5-1.049,2.777,2.777,0,0,0-1.453-.565,5.989,5.989,0,0,0-1.453.323c-3.471,1.211-4.682,3.31-6.3,11.139a38.354,38.354,0,0,0-.888,7.265c-.081,3.552.807,5.893,2.5,7.346l1.13.888Zm-2.26-37.454a1.373,1.373,0,0,1-.081-.565c0-.969.646-1.534,1.7-2.179,1.211-.726,3.31-.888,3.31-.4l.161,1.13c.323,1.372-1.292,2.987-3.31,3.067h-.646C70.63,106.149,70.55,105.988,70.388,105.181ZM82.819,107.6c-1.049-.242-1.372-.4-1.372-1.211a3.458,3.458,0,0,1,2.26-3.39,7.733,7.733,0,0,1,1.776-.242q1.7,0,1.7,1.937c0,1.776-1.614,2.987-3.552,2.906C83.384,107.764,83.142,107.6,82.819,107.6Z" transform="translate(218.764 54.942)" fill="#015c31"/>
      <path id="Path_192" data-name="Path 192" d="M66.33,137.917a3.136,3.136,0,0,0,0-.888,3.879,3.879,0,0,1,.646-2.179,2.216,2.216,0,0,0,.4-1.534,5.19,5.19,0,0,1,.323-1.776,40.182,40.182,0,0,0,.646-5.328c.161-2.341.4-4.359.646-4.359.161,0,.323-.4.323-.888a26.578,26.578,0,0,1,.4-4.682c.323-2.179.565-4.036.323-4.117-.081,0-.081-.081-.081-.161a5.915,5.915,0,0,1,.323-1.776,6.934,6.934,0,0,0,.161-2.422.865.865,0,0,1-.161-.484,1.332,1.332,0,0,1,1.13-1.453c.484-.081.807,0,.807.323,0,.161.646.4,1.292.484,1.049.081,1.614.726,3.875,4.2l3.229,5.247a5.555,5.555,0,0,1,.726,1.7,8.2,8.2,0,0,0,1.13,2.341c.484.807,1.7,2.906,2.5,4.6.888,1.7,1.7,3.067,1.937,2.987.323,0,.565-.969.888-2.018.726-3.067,1.7-10.332,1.534-11.382a4.826,4.826,0,0,1,.242-2.1,31.472,31.472,0,0,0,1.13-7.83,1.527,1.527,0,0,1,.565-1.453,1.928,1.928,0,0,1,.726-.242c.484-.081.726.161.807.888a22.828,22.828,0,0,1-.4,4.52c-.484,2.987-.807,5.085-1.292,9.364a30.8,30.8,0,0,1-.646,4.278,47.288,47.288,0,0,0-1.13,9.848c.161,1.7,0,2.26-1.049,2.341a5.228,5.228,0,0,1-1.13,0L85.7,133.8l-1.937-2.987a17.4,17.4,0,0,1-2.1-3.955c-.081-.484-.323-.888-.4-.807a11.51,11.51,0,0,1-1.614-2.341c-.726-1.292-2.26-3.955-3.552-5.893a18.582,18.582,0,0,1-2.341-4.117c-.081-.726-.969-1.776-1.534-1.7a5.226,5.226,0,0,0-.4,1.937,12.32,12.32,0,0,1-.4,2.583,93.907,93.907,0,0,0-1.7,12.512c-.081,1.211-.484,3.471-.807,5.166L68.106,138a1.027,1.027,0,0,1-.969.565C66.572,138.4,66.33,138.32,66.33,137.917Z" transform="translate(249.541 61.677)" fill="#015c31"/>
      <path id="Path_193" data-name="Path 193" d="M85.519,134.791c-.323-1.049-.646-2.341-.888-3.552s-.565-2.422-.646-3.31a11.992,11.992,0,0,0-.565-3.229,15.541,15.541,0,0,0-4.117,1.211c-1.7.565-3.229,1.211-4.843,1.776-1.049.4-1.7,3.229-1.13,6.942.4,2.583-.323,5-1.372,5-.484,0-.807-7.668-.161-8.233a5.047,5.047,0,0,0,.323-2.664c.081-2.018,1.13-12.35,1.7-13.561a15.143,15.143,0,0,0,.888-4.036,25.426,25.426,0,0,1,1.7-6.054c.969-2.179,1.372-2.583,2.744-2.906a3.27,3.27,0,0,1,2.987.726l1.534,1.13,1.372,4.843c.242,1.13.565,2.179.726,2.906a8.9,8.9,0,0,1,.323,2.179c-.161.242.081,1.049.242,1.937.242.726.4,1.453.565,2.018a3.573,3.573,0,0,1,0,2.341c-.081.081-.081.081-.081.242.081.323.4.565,1.049.726.807.242,1.13.646.969.888-1.534,1.13-1.534,2.018-.484,7.588,1.292,6.458,1.049,8.233-.646,8.718l-1.13.242Zm-6.78-10.332c1.453-.4,3.067-.969,4.52-1.453-.242-1.13-.4-2.422-.646-3.552a29.114,29.114,0,0,1-.565-4.117c-.081-.807-.323-2.26-.646-3.794a34.659,34.659,0,0,0-2.26-7.426c-.161-.323-.646-.565-.807-.484-.565.242-1.776,3.471-2.1,5.57a28.687,28.687,0,0,1-.565,2.825c-.484.969-2.1,13.8-1.776,13.8C74.057,125.831,76.236,125.186,78.739,124.459Z" transform="translate(285.645 57.215)" fill="#015c31"/>
      <path id="Path_194" data-name="Path 194" d="M82.517,134.646a7.621,7.621,0,0,1-2.744-3.713,2.977,2.977,0,0,1-.161-1.372c.242-.565.4-.888.646-.888.242-.081.484.161.484.888.161,1.372,2.5,3.875,4.117,4.278a2.731,2.731,0,0,0,1.372.081c.4-.081.646-.4,1.292-.807.726-.565,1.453-1.292,1.453-1.7l.242-1.776a10.87,10.87,0,0,0-.726-3.552,19.161,19.161,0,0,0-1.937-4.52,7.071,7.071,0,0,0-2.825-1.776,8.58,8.58,0,0,1-2.018-.888c-.081-.161-.242-.242-.565-.161-1.534.484-5.408-2.422-6.135-4.762-1.049-3.309,1.372-9.929,3.955-10.736a3.7,3.7,0,0,0,1.372-.807c.081-.323.565-.726,1.372-.969a5.955,5.955,0,0,1,3.552-.081,3.673,3.673,0,0,1,2.422,2.179A4,4,0,0,1,87.2,106.8c-.242.484-.4.888-.646.888-.242.081-.484-.807-1.13-2.906s-1.857-2.987-3.471-2.422a4.255,4.255,0,0,0-1.857,1.13c-.807.646-1.049,1.372-1.292,3.875a13.8,13.8,0,0,0,.484,5.328,5.676,5.676,0,0,0,1.857,2.906l1.937,1.211a13.622,13.622,0,0,0,2.5,1.049c4.278,1.292,5.973,2.744,7.023,5.973a6.469,6.469,0,0,1-.081,4.44,12.347,12.347,0,0,1-1.534,3.39c-2.1,2.1-3.632,3.229-5,3.632A4.3,4.3,0,0,1,82.517,134.646Z" transform="translate(309.15 50.661)" fill="#015c31"/>
      <path id="Path_195" data-name="Path 195" d="M92.449,133.332a1.513,1.513,0,0,1-1.534-.969,6.177,6.177,0,0,1-.242-2.018c.081-1.534-2.5-16.144-3.229-18.646-.323-.969-.484-1.857-.807-2.825a7.609,7.609,0,0,0-.242-.726c-.4-.888-.969-.969-2.906-.323a6.182,6.182,0,0,0-2.987,2.018,8.4,8.4,0,0,1-2.018,1.937c-.565.242-.888.081-1.13-.484-.242-.646.161-.888,2.422-2.422a18.46,18.46,0,0,1,3.794-1.937c.726-.242,5.65-1.857,9.444-3.471a18.021,18.021,0,0,0,4.52-2.341,8.505,8.505,0,0,1,2.018-1.292c1.13-.081-.242,1.211-1.776,2.1a10.093,10.093,0,0,0-2.5,1.857,6.081,6.081,0,0,1-2.422,1.453c-2.018.646-2.26,1.049-1.453,3.794,1.7,5.489,1.937,6.538,1.7,7.265-.081.484-.161.807-.081.888.484.242.807,4.359,1.049,5.327.646,2.018.726,2.744.969,2.987l.081.161a1.966,1.966,0,0,1,0,.969,6.731,6.731,0,0,0,.161,2.422,2.706,2.706,0,0,1-.726,3.067,3.364,3.364,0,0,1-1.211,1.049C93.175,133.332,92.933,133.332,92.449,133.332Z" transform="translate(327.066 41.32)" fill="#015c31"/>
      <path id="Path_196" data-name="Path 196" d="M92.634,134.647c-1.049-.161-1.857-.888-2.825-2.664a81.314,81.314,0,0,1-3.39-8.314l-2.018-5.65a46.6,46.6,0,0,1-1.776-5.57,14.853,14.853,0,0,0-.565-2.422c-1.292-3.713-1.211-4.44-.323-5.489a7.885,7.885,0,0,1,1.049-1.13c.4-.242.726.081,1.13.646a1.194,1.194,0,0,0,1.534.4c2.1-1.13,4.359-2.26,6.538-3.39,3.148-1.7,5.812-3.067,6.054-2.906.565.4-1.372,1.857-6.054,4.359a29.406,29.406,0,0,0-5.489,3.39l-1.211,1.211c.242.646.565,1.211.807,1.857l1.7,4.52a22.421,22.421,0,0,0,1.049,2.825c.484.969.969.888,2.341.161,4.278-2.26,6.135-3.632,6.78-4.6.4-.646.888-1.13,1.211-1.049,1.049.323-.242,1.614-3.552,3.794-4.924,3.067-5.408,3.713-5.408,5.247s2.744,8.96,4.036,11.462a5.152,5.152,0,0,0,.484.726,3.842,3.842,0,0,0,2.26-.646c1.534-.807,2.341-1.534,5.893-4.6.323-.242.484-.323.726-.484s.484-.161.484-.081c.161.242-.242,1.13-1.211,2.1-.726.726-1.453,1.534-1.7,1.776-.323.242-1.13,1.049-1.937,1.614L97.4,133.032a3.333,3.333,0,0,1-.888.565A9.627,9.627,0,0,1,92.634,134.647Z" transform="translate(353.841 29.431)" fill="#015c31"/>
      <path id="Path_197" data-name="Path 197" d="M108.389,129.485c-1.534.565-2.583.807-2.906.4a1,1,0,0,0-1.534-.161,1.162,1.162,0,0,0-.484.807,1.675,1.675,0,0,1-.484.807,2.068,2.068,0,0,1-2.744-.646c-.565-.726-4.52-7.184-7.507-12.108l-3.713-6.054c-1.857-3.067-2.744-5.731-2.5-7.507.081-.565,1.614-2.664,3.39-4.682a35.434,35.434,0,0,1,4.278-4.52,6.943,6.943,0,0,1,3.31-1.291c2.906-.565,4.762.081,6.3,1.937a6.6,6.6,0,0,1,1.7,5.328,6.478,6.478,0,0,0,.081,2.744,3.722,3.722,0,0,1-.726,1.937c-.565.969-.726,1.534-.484,1.857.081.161.565.161,1.292-.161a8.741,8.741,0,0,1,5.57.161,8.263,8.263,0,0,1,3.067,2.018,11.531,11.531,0,0,0,.888.969c.726.888.969,1.7,1.292,3.632.726,4.036.323,6.458-1.292,9.283a9.012,9.012,0,0,1-2.179,2.825C112.1,127.951,110.73,128.6,108.389,129.485Zm-6.458-20.826c.484-2.179.484-2.987-.888-7.1a15.8,15.8,0,0,0-1.614-3.31,2.847,2.847,0,0,0-3.148-1.211,12.271,12.271,0,0,0-3.471,2.018,5.912,5.912,0,0,0-1.937,2.1,2.66,2.66,0,0,1-.726,1.292c-.484.484-.242,1.049,1.211,3.229,1.049,1.453,2.744,4.036,3.875,5.812.807,1.13,1.453,2.1,1.937,2.744.323.4.484.646.646.646C98.622,115.117,101.367,110.839,101.932,108.659ZM113.8,122.785c.484-2.5-.646-5.65-2.5-7.911-1.776-2.179-4.359-4.44-5.166-4.278a10.823,10.823,0,0,0-2.987,1.7c-.646.565-1.292,1.13-1.857,1.7-3.067,3.552-2.744,4.2,1.857,12.027.323.565.726,1.534.969,1.937.081.161.081.323.161.323.323.484.888.323,2.26-.161a36.219,36.219,0,0,0,4.52-2.422c.646-.4,1.13-.807,1.534-1.049A3.089,3.089,0,0,0,113.8,122.785Z" transform="translate(392.007 2.466)" fill="#015c31"/>
      <path id="Path_198" data-name="Path 198" d="M103.906,121.908a8.753,8.753,0,0,1-3.471-2.018l-1.211-1.211a19.7,19.7,0,0,1-2.906-3.794,5.121,5.121,0,0,0-1.292-1.7c-1.211-.807-5.247-5.973-5.247-7.1a4.025,4.025,0,0,1,1.049-2.5,1.89,1.89,0,0,1,2.825-.081,5.222,5.222,0,0,1,.807,1.211,11.768,11.768,0,0,0,1.937,2.664,56.434,56.434,0,0,1,4.117,4.762,36.759,36.759,0,0,0,4.117,4.52l.4.4c.4.4.646.807.565.969-.161.161-.081.323.161.565a4.865,4.865,0,0,0,2.422.969c.969.161,1.292.081,1.614-.161.161-.161.323-.484.565-.807a5.675,5.675,0,0,0,.646-2.1c0-1.211-1.211-6.458-2.018-7.265a.868.868,0,0,1-.081-1.13c.242-.161.161-.4,0-.565a11.5,11.5,0,0,1-1.211-1.776,54.175,54.175,0,0,0-4.682-7.668,21.028,21.028,0,0,1-2.179-3.31,5.206,5.206,0,0,0-1.453-2.018c-.484-.242-.4-.565-.081-.888.4-.4,1.049-.161,1.776.565a11.389,11.389,0,0,1,1.13,1.453l2.422,3.471a30.446,30.446,0,0,1,2.26,3.552,15.167,15.167,0,0,0,1.614,2.906c1.614,2.1,3.229,7.588,3.552,10.655.323,2.664-.565,5.731-1.7,6.861C109.153,122.554,106.408,122.635,103.906,121.908Z" transform="translate(415.379 -16.272)" fill="#015c31"/>
      <path id="Path_199" data-name="Path 199" d="M115.359,122.161a1.447,1.447,0,0,1-1.776-.161,5.089,5.089,0,0,1-1.13-1.7c-.565-1.372-9.525-13.319-11.3-15.175l-1.937-2.179c-.242-.161-.4-.484-.565-.565-.726-.646-1.292-.484-2.744.969a5.811,5.811,0,0,0-1.7,3.067A6.315,6.315,0,0,1,93.241,109a.72.72,0,0,1-1.211.081c-.484-.4-.242-.888,1.13-3.229a21.822,21.822,0,0,1,2.5-3.471c.565-.565,4.2-4.2,6.861-7.345a19.054,19.054,0,0,0,2.987-4.117,7.5,7.5,0,0,1,1.211-2.018c.969-.565.4,1.211-.646,2.664a10.156,10.156,0,0,0-1.372,2.825,6.124,6.124,0,0,1-1.534,2.422c-1.534,1.534-1.534,2.018.4,4.036,3.955,4.117,4.682,5,4.843,5.731.081.484.242.807.323.807.565-.081,2.664,3.552,3.39,4.278,1.534,1.534,1.857,2.1,2.179,2.26l.161.161a1.156,1.156,0,0,1,.4.888,5.792,5.792,0,0,0,1.292,2.1c.888,1.13,1.13,1.7.726,3.067a4.6,4.6,0,0,1-.646,1.534A4.379,4.379,0,0,1,115.359,122.161Z" transform="translate(429.676 -36.704)" fill="#015c31"/>
      <path id="Path_200" data-name="Path 200" d="M116.985,109.589c-1.534.161-2.179-.161-5.973-2.906-7.1-5.166-17.032-15.014-16.87-16.87a3.281,3.281,0,0,1,.646-1.534c.484-.646.969-1.049,1.453-.888a19.926,19.926,0,0,1,2.179,1.453c3.471,2.5,9.364,7.426,14.933,12.512,4.6,4.2,6.3,6.458,5.57,7.507Q118.559,109.468,116.985,109.589Z" transform="translate(446.211 -46.896)" fill="#015c31"/>
      <path id="Path_201" data-name="Path 201" d="M115.912,116.76a35.125,35.125,0,0,1-4.359-3.229,9.245,9.245,0,0,0-2.1-1.776,165.981,165.981,0,0,1-13.884-10.816,1.351,1.351,0,0,1,.242-1.292,3.761,3.761,0,0,1,1.13-1.13c.4-.242,2.664.888,5.247,2.5a67.247,67.247,0,0,1,5.893,3.875,12.67,12.67,0,0,0,1.614,1.049c.565.323.888.4,1.049.161.565-.969-.646-6.861-2.744-12.834-2.018-5.812-2.744-8.556-2.341-9.2.161-.242.484-.161.888.081.565.323,2.422,6.78,4.117,12.673.484,1.776.969,3.309,1.211,3.309s2.664-.484,5.489-.969a62.443,62.443,0,0,1,7.749-.969c3.552,0,6.3-.484,6.78-1.372.242-.4.646-.646.888-.484s.161.565-.081.969a10.264,10.264,0,0,1-3.148,2.987,18.828,18.828,0,0,1-8.879,2.422c-2.179-.161-7.911.565-8.153.969a12.71,12.71,0,0,0-.323,2.26l-.081,1.857,4.117,3.148c5.408,4.2,6.054,5,4.682,7.588l-.565,1.13C118.737,118.616,117.284,117.728,115.912,116.76Z" transform="translate(455.759 -71.179)" fill="#015c31"/>
    </g>
    <g id="Group_128" data-name="Group 128" transform="translate(662.68 279.508)">
      <path id="Path_202" data-name="Path 202" d="M109.167,295.539l-7.507-2.987a325.6,325.6,0,0,0,23.247-121.322,325.865,325.865,0,0,0-22.44-119.385l7.507-2.906A334.863,334.863,0,0,1,132.9,171.231,334.671,334.671,0,0,1,109.167,295.539Z" transform="translate(-101.66 -48.94)" fill="#015c31"/>
    </g>
    <g id="Group_129" data-name="Group 129" transform="translate(22.33 279.427)">
      <path id="Path_203" data-name="Path 203" d="M46.062,295.61a337.751,337.751,0,0,1-.807-246.68l7.507,2.906a329.028,329.028,0,0,0,.726,240.706Z" transform="translate(-22.33 -48.93)" fill="#015c31"/>
    </g>
    <g id="Group_130" data-name="Group 130" transform="translate(43.317 16.337)">
      <path id="Path_204" data-name="Path 204" d="M115.5,114.792c.242-.888-2.1-7.749-2.906-8.395.161-.161-1.292-3.471-1.13-3.632-.081-.888-1.857-3.713-2.341-4.44-.969-1.049-1.049-2.744-1.7-3.31a2.319,2.319,0,0,1-.646-1.13c.565-.646-.646-2.987-2.664-5.247a7.947,7.947,0,0,1-1.776-3.148c-.242-1.292-2.583-4.117-10.332-10.816-1.372-1.211-1.534-1.049-2.179-.242a21.772,21.772,0,0,0-1.7,2.825L87.165,79.6c-.969,2.1-6.215,9.041-6.7,9.606,0,0-.484.888-1.13,1.937l-2.179,3.471c-1.049,1.534-3.31,5.973-3.39,6.135-1.453,1.7,0,4.036,1.7,5.489,1.372,1.211,2.5,1.13,2.906.646,1.049-1.211.807-2.744-.161-4.117a3.892,3.892,0,0,1-.888-2.1A41.2,41.2,0,0,1,80.142,95.9c.161-.161.4-.161.565-.323l.242-.323c.242-.323.565-.646.484-.888a18.569,18.569,0,0,1,2.825-4.52c3.067-3.471,3.955-7.023,5-8.233.646-.726,1.534-.807,3.067.484,2.422,2.1,5.893,5.893,5.57,6.135a23.242,23.242,0,0,1,2.1,3.148c.161.161,3.229,3.632,3.309,5.731l4.843,11.381c.323,1.13,1.453,2.583,1.372,3.31a2.676,2.676,0,0,0,.726,1.937,1.854,1.854,0,0,1,.242,1.857,7.643,7.643,0,0,0,.242,1.534c.081.888.646,10.655-3.875,15.9-4.6,5.328-8.072,5.57-15.175,5.247-2.422-.242-8.879-1.776-9.929-2.744a4.344,4.344,0,0,0-2.018-.727,4.117,4.117,0,0,0-1.776-.484c-.161.161-.323,0-.565-.242l-2.1-1.857c-.646-.565-1.776-1.292-3.067-2.341-5.328-4.6-13.8-13-15.579-15.337-4.843-7.345-7.265-11.381-14.126-22.844l-.484-1.292s-1.049-2.179-2.341-4.682c-1.211-2.664-2.341-4.682-2.422-5.247s-.081-1.13-.242-1.292c-1.372-1.776-4.762-10.494-5.085-12.673-.161-2.26-.888-4.762-1.534-5.328-.323-.242-.4-1.7-.484-2.825-.323-6.135-.484-6.538.4-10.332.565-1.614,1.211-2.664,1.211-2.987a1.792,1.792,0,0,1,.081-.726,4.658,4.658,0,0,0,.807-.646c.242-.323.4-.484.4-.726a3.676,3.676,0,0,1,.969-2.1c.565-.646.726-1.776.969-2.1.565-.646,5.327-3.713,6.135-2.745l2.583.081a5.56,5.56,0,0,1,3.067.484A29.688,29.688,0,0,0,50.276,39a19.98,19.98,0,0,1,5.085,3.39,28.307,28.307,0,0,1,6.3,8.153C63.11,53.122,66.5,60.306,66.5,61.92a2.56,2.56,0,0,0,.726,1.7c.484.4.888.484,1.292.081.161-.161.081-.4.242-.565a21.6,21.6,0,0,0,.969-4.2c.081-2.906-2.5-11.3-5-14.207-1.534-1.857-3.794-5.166-6.538-7.507a7.506,7.506,0,0,0-1.776-1.292L52.94,33.749c-3.148-1.937-5.489-1.049-7.1-1.049-.969-.081-1.776-.4-2.018-.4-.161-.4-2.5-.565-5.166-.161l-5.085,3.39A24.26,24.26,0,0,0,30.823,39c.161.161-.726,2.018-1.857,4.278a41.753,41.753,0,0,0-3.39,12.512,15.007,15.007,0,0,1-.242,2.987l-.4,4.2.323,3.955c.161,2.26,2.664,12.673,3.148,13.4l.4,1.13c-.323,1.292,4.682,15.579,6.458,18.162,7.83,15.014,9.121,17.193,14.61,24.377a5.017,5.017,0,0,0,.969,1.372c4.762,6.215,6.3,8.153,12.269,13.319a38.706,38.706,0,0,0,6.3,4.117l2.987,1.776a33.277,33.277,0,0,0,4.52,1.534,4.559,4.559,0,0,1,2.422.242l3.229.646c4.52-.323,8.879-.323,10.251-.484l3.552-.646a5.508,5.508,0,0,0,1.937-.726,6.356,6.356,0,0,1,1.937-.727c6.215-3.471,8.233-5.166,8.879-5.973a26.61,26.61,0,0,0,6.78-19.211A34.939,34.939,0,0,1,115.5,114.792Z" transform="translate(-24.93 93.732)" fill="#015c31"/>
      <path id="Path_205" data-name="Path 205" d="M240.134,30a2.085,2.085,0,0,0-2.5-1.211c-.323.081-.646.323-.807.969a57.53,57.53,0,0,0-.726,7.83,1.287,1.287,0,0,1-.242.969,6.572,6.572,0,0,0-.646,2.825,10.025,10.025,0,0,1-.726,2.987,71.763,71.763,0,0,0-2.664,8.718c-.565,2.987-5.893,12.592-8.233,13.238-2.744.807-4.036-1.13-4.843-3.875l-.4-1.292a21.975,21.975,0,0,1-.969-9.041c.081.161.161-6.215.242-9.606a9.476,9.476,0,0,1,.081-2.1c.4-1.7.161-4.278-.969-10.09l-.4-1.453a12.459,12.459,0,0,0-1.13-2.664c-1.453-2.018-4.117-2.664-6.861-1.937a13.427,13.427,0,0,0-4.682,2.744c-1.292,1.049-2.26,2.018-2.179,2.341.081.161-.4.969-1.13,1.534-.646.726-3.713,7.426-4.44,9.041a39.066,39.066,0,0,0-2.179,6.054c-.4.969-6.215,18.323-5.893,18.243a5.446,5.446,0,0,0-.646,1.937,1.96,1.96,0,0,1-.646,1.453c-.161.081-.4-.081-.484-.4l-.161-.646a8.836,8.836,0,0,1,.161-1.776c0-.161.081-1.453.161-2.5-.161-.484-.161-1.211.242-11.543l.081-3.875c.242-1.7.161-3.067.323-3.229a18.968,18.968,0,0,0-.484-4.278,26.957,26.957,0,0,0-.727-3.148,5.641,5.641,0,0,0-1.049-2.341,10,10,0,0,0-2.1-2.906c-1.211-1.049-3.229-1.372-5.489-.726a16.971,16.971,0,0,0-5.812,3.229l-1.534,1.453c-3.229,3.955-5.973,11.866-6.7,15.175a1.221,1.221,0,0,0-.484.969v2.341l-.161.888-.161.726.081.323c.081.161.242.242.323.4.161,1.7.323,3.148.323,3.148a1.41,1.41,0,0,1-.081.969,7.6,7.6,0,0,0-.161,2.906,8.349,8.349,0,0,1-.242,3.067,61.082,61.082,0,0,0-1.13,9.041,7.166,7.166,0,0,1-.807,2.664,7.482,7.482,0,0,0-.969,2.744c-.081,2.26-3.713,12.269-7.023,16.87a15.98,15.98,0,0,1-5.489,5.085c-1.857.888-4.843.081-6.942-1.614-.081-.161-.242-.081-.323-.242a9.951,9.951,0,0,1-2.825-3.148,23.52,23.52,0,0,1-1.292-3.875l-.484-2.179c-1.534-6.377-1.857-7.507-1.857-9.444V79.727l2.5-1.372c1.937-1.13,2.906-2.179,5.327-5,3.471-4.843,4.117-5.166,5.893-9.364.484-.242,2.422-7.184,2.422-9.929l-.161-1.614a5.078,5.078,0,0,0-.081-2.179c-.081-.565-.161-1.049-.242-1.372a7.455,7.455,0,0,0-1.776-2.179c-2.422-2.422-4.682-3.552-6.861-3.713a9.89,9.89,0,0,0-5.166.969c-4.278,2.018-6.377,6.78-7.426,8.8-.242.323-2.744,7.668-2.5,8.153s.081.888-.484,2.906a3.942,3.942,0,0,0-.323,2.422,2.08,2.08,0,0,1-.242,1.049c0,.081-.081.4-.081.565a2.019,2.019,0,0,0-1.049.242c-.323.161-.484.484-.484,1.13a42.973,42.973,0,0,0,1.13,6.3,7.819,7.819,0,0,0,0,3.067,13.468,13.468,0,0,1-.081,3.067,13.724,13.724,0,0,0-.161,3.632,1.251,1.251,0,0,1,.161.646,16.248,16.248,0,0,0,.565,2.987c0,1.614.081,3.148.081,4.036a6.813,6.813,0,0,1-.484,2.744,7.186,7.186,0,0,0-.646,2.825c.242,2.26-2.26,12.673-4.924,17.6a15.605,15.605,0,0,1-4.843,5.65c-1.7,1.049-4.843.646-7.1-.727-.081-.161-.242-.081-.323-.161a10.959,10.959,0,0,1-3.148-2.825,23.233,23.233,0,0,1-1.776-3.713l-.726-2.1c-2.26-6.135-2.744-7.265-2.987-9.121l-.242-2.018,2.341-1.7c1.776-1.292,2.664-2.5,4.682-5.57,2.906-5.247,3.471-5.57,4.682-10.009.4-.242,1.534-7.426,1.211-10.171l-.4-1.534a4.485,4.485,0,0,0-.4-2.179c-.161-.484-.242-1.049-.4-1.372a6.627,6.627,0,0,0-2.018-1.937c-2.744-2.1-5.085-2.987-7.184-2.825a9.9,9.9,0,0,0-5,1.534c-4.036,2.5-5.489,7.507-6.377,9.606-.161.323-1.776,7.991-1.534,8.395s.161.888-.161,2.906a4.163,4.163,0,0,0-.081,2.422,2.537,2.537,0,0,1-.081,1.049v.323a2.416,2.416,0,0,0-.807.323,1.208,1.208,0,0,0-.323,1.13,41.13,41.13,0,0,0,1.534,5.247l.081,1.049a7.854,7.854,0,0,0,.4,3.148,15.36,15.36,0,0,1,.323,2.987,11.1,11.1,0,0,0,.323,3.632,2.734,2.734,0,0,1,.242.646,25.5,25.5,0,0,0,1.13,3.31l2.179,5c1.13,6.619,1.937,13.238,2.018,13.157.323,2.583.323,4.762,0,5.085-.161.081-.161.323-.081.484s-.565,1.13-.969,2.583a4.248,4.248,0,0,1-.888,1.614c-.242.242-.484.161-.888.242-1.776-.081-2.583-.726-5.166-3.875-4.843-5.893-4.924-6.3-5.166-7.426a7.8,7.8,0,0,0-.726-1.372c-.242,0-.323-.161-.565-.4a11.54,11.54,0,0,1-1.372-3.31l-3.955-8.8-.807-2.341a10.119,10.119,0,0,0-.726-2.018l-1.292-2.664a24.938,24.938,0,0,0-4.6-7.184l-2.26-2.744L62.147,97c-1.937-.807-5.166-1.049-5.893-.484a.961.961,0,0,1-.888.242c-.081-.161-.484-.081-.726.161a1.271,1.271,0,0,1-1.13.242,1.2,1.2,0,0,0-1.211.323c-.242.242-.646.323-.726.161a2.146,2.146,0,0,0-1.13.484c-.646.565-2.744,1.13-6.215,1.776-.646.081-.807,0-1.13-.323a7.392,7.392,0,0,1-.888-1.937l-.969-1.453A26.745,26.745,0,0,1,39.3,92.723a29.553,29.553,0,0,0-2.583-4.278c-.4-.565-.646-.807-.888-.565a.506.506,0,0,1-.646.081c-.081-.161-.726.161-1.534.807l-.807.646A4.618,4.618,0,0,0,31.8,93.773l.323,2.825a4.125,4.125,0,0,0,.4,2.1,5.2,5.2,0,0,1,.484,1.13,3.453,3.453,0,0,0,1.049,1.776c.726.888,1.614,1.7,2.26,1.7.323.161.969.323,1.13.565.807.4,2.5.646,2.825.323.161-.081.323.161.484.323a5.139,5.139,0,0,0,1.614.646,3,3,0,0,0,.726-.161c2.1,3.31,6.619,11.866,7.426,15.821l.484,2.018a.834.834,0,0,0,.323.646,2.549,2.549,0,0,0,1.372.888,5.175,5.175,0,0,0,1.13-2.906c-.484-2.422-1.372-5.893-2.179-6.942-.323-.4-.565-.646-.484-.888a8.8,8.8,0,0,0-.888-2.987,43.083,43.083,0,0,0-2.664-6.78l.4-.323a27.92,27.92,0,0,1,5.166-2.5c1.937.161,3.148-1.453,5,.726.969,1.211,1.13,2.744,1.776,3.794.969,1.453,1.534,2.906,1.372,3.067,0,.242.161.484.484.888.4.484.646,1.049,2.341,5.57a27.087,27.087,0,0,0,1.453,3.148c.242.242.161.484.161.726-.161.565.646,2.341,1.7,4.278a10.934,10.934,0,0,1,1.13,2.987,10.049,10.049,0,0,0,1.7,3.148,16.594,16.594,0,0,1,1.857,3.31,8.362,8.362,0,0,0,.807,1.534c.323.4.565.4.807.646s.565.4.807.646a.5.5,0,0,1,.161.484,2.643,2.643,0,0,0,.565,1.292,22.266,22.266,0,0,0,5.812,4.44A18.386,18.386,0,0,1,84.1,143.5c.969.969,4.2,1.372,6.054.969a4.07,4.07,0,0,0,2.5-1.211c2.018-1.857,3.471-4.843,2.664-5.893a.426.426,0,0,1,.161-.565c.565-.4,1.13-4.843.807-5.247a7.2,7.2,0,0,1-.242-1.372c-.4-4.359-.646-6.861-.888-8.233a24.531,24.531,0,0,0,5.085,3.713c1.937.807,7.023,1.937,7.507,1.7,1.291-.807,5.973-.4,8.395-1.937a11.072,11.072,0,0,0,3.713-3.955c1.049-1.453,2.664-3.471,2.825-4.359.4-1.292,1.049-2.5,1.453-3.713a103.194,103.194,0,0,0,2.825-15.821v-.4c.646.807,1.211,1.614,1.292,1.7.081.161,0,.4.081.565.646,1.372,3.794,4.359,5.328,5.328,1.776,1.049,6.78,2.744,7.265,2.583,1.372-.646,5.973.323,8.556-.888a12.085,12.085,0,0,0,4.2-3.471c1.211-1.372,2.987-3.148,3.309-4.036.565-1.211,1.372-2.341,1.857-3.552a96.623,96.623,0,0,0,4.682-15.417,8.522,8.522,0,0,1,.484-2.906,24.908,24.908,0,0,0,.888-4.52l.323-3.31c.323-1.614.565-13,.646-17.193.727-2.583,1.937-6.458,1.937-6.377.242-3.552,3.552-11.059,8.072-12.35.646-.161,1.937,1.937,2.583,4.036.161.484.081.888.242,1.372.161,1.211.161,2.422.323,3.632a23.187,23.187,0,0,1,.081,3.31l-.323,5.57c-.081,1.453,0,2.987-.161,4.44-.323,3.794-.4,4.2-.242,4.682a17.512,17.512,0,0,1-.161,3.229,11.634,11.634,0,0,0-.081,2.825,8.005,8.005,0,0,1-.081,2.341v4.359a23.33,23.33,0,0,1,.323,4.682c0,3.713,0,5.085.323,6.054a2.142,2.142,0,0,0,.726,1.211c.726.646,1.453.807,3.067.726l1.614.081c3.713-1.049,4.278-5.327,4.278-5.327-.323-3.067,1.614-11.543,3.875-20.341,2.179-8.395,4.52-16.951,6.054-19.373a41.31,41.31,0,0,1,1.7-4.682c.161-.081,2.664-5,2.664-5a18.083,18.083,0,0,0,2.1-1.857c1.049-1.372,1.7-2.1,2.179-2.179.646-.161.969.4,1.372,1.7l.323.969a28.538,28.538,0,0,1,.727,5.65c0-.565.565,5.65.242,5.731a9.644,9.644,0,0,0-.081,2.825c.161.484-.081,1.049-.4,2.906-.646,3.39-.969,7.83,1.13,15.175a13.636,13.636,0,0,0,1.211,2.987c.081.161.242.081.242.323,1.211,2.5,1.453,2.744,3.471,3.552a14.212,14.212,0,0,0,9.444.969,7.865,7.865,0,0,0,4.359-3.39c3.632-6.458,4.117-7.668,4.036-7.991A5.936,5.936,0,0,1,234,55.754a21.267,21.267,0,0,0,1.614-4.359l.807-3.229c.565-1.614,2.664-12.754,3.471-16.87l-.161-.484A1.827,1.827,0,0,0,240.134,30ZM95.887,92.32a7.865,7.865,0,0,0-.323-2.422,9.174,9.174,0,0,1-.323-4.6.785.785,0,0,0-.081-.726,31.726,31.726,0,0,1-.081-3.552,22.226,22.226,0,0,0-.323-3.632c-.081-2.987.807-7.911,3.39-9.525A2.9,2.9,0,0,1,99.6,67.3a5.434,5.434,0,0,1,4.924,2.744,10.006,10.006,0,0,1,1.292,5.57c-.161,6.7-1.13,8.96-4.44,14.852-.242.565-1.13,1.7-1.7,2.664a17.01,17.01,0,0,1-3.067,3.713C96.533,95.306,95.564,94.338,95.887,92.32ZM133.261,71.09a11.654,11.654,0,0,0,0-2.422c-.323-.807-.161-4.278.242-4.6a.772.772,0,0,0,0-.726,17.194,17.194,0,0,1,.4-3.552c.161-1.614.161-3.229.161-3.632.323-2.987,1.776-7.749,4.52-9.121a2.406,2.406,0,0,1,1.534-.323,5.572,5.572,0,0,1,4.6,3.31,10.752,10.752,0,0,1,.646,5.731c-.969,6.619-2.26,8.718-6.215,14.207-.323.484-1.292,1.534-2.018,2.422a14.348,14.348,0,0,1-3.471,3.31C133.583,74.158,132.7,73.027,133.261,71.09Z" transform="translate(22.448 37.745)" fill="#015c31"/>
      <path id="Path_206" data-name="Path 206" d="M159.187,126.867c-.646,0-1.534,1.13-2.583,3.39-2.825,5.893-8.072,8.476-16.225,8.395-6.619-.081-12.834-2.745-24.7-11.947-5.731-4.359-19.857-10.978-26.073-13.642a41.206,41.206,0,0,0-6.054-1.453c-1.857-.323-3.229-.4-3.067-.565s1.937-2.664,4.682-5.731a60.988,60.988,0,0,0,6.78-9.525c3.31-5.893,9.686-20.826,11.462-27.768,2.018-7.911,11.139-28.171,13.238-32.207a7.74,7.74,0,0,0,.888-2.179,25.2,25.2,0,0,1,4.2-5.893c2.583-2.825,3.955-5.328,4.036-5.893,0-.807,6.458-3.31,9.041-3.229,3.713.081,7.507,5.57,7.426,10.494a5.5,5.5,0,0,1-.161,1.7,6.11,6.11,0,0,0-.161,1.534c0,.888.161,1.211.646,1.211a3.621,3.621,0,0,0,1.857-.646c1.049-.484,1.211-3.39,1.292-5.893.081-5.57-4.117-9.363-10.816-10.655-1.049-.161-3.713.484-5.973,1.453-9.929,4.44-14.53,7.911-23.247,21.633A96.687,96.687,0,0,0,96.71,58.82c-2.5,7.1-8.556,23.893-9.606,27.848a65.6,65.6,0,0,1-7.507,15.66c-3.632,5.57-6.78,9.041-7.588,9.041a7.386,7.386,0,0,0-2.583,2.341,7.01,7.01,0,0,1-3.229,2.341c-1.857.484-5.328,3.148-5.328,4.682,0,.807.969,1.211,1.857,1.211a2.16,2.16,0,0,0,1.857-.969,3.814,3.814,0,0,1,2.583-.807c2.018,0,6.3-1.776,9.525-3.552a6.4,6.4,0,0,1,3.229-.646c3.39.081,8.072,1.857,13.48,4.762a165.834,165.834,0,0,1,16.144,10.413c4.2,2.987,12.915,8.879,16.305,9.767a48.933,48.933,0,0,0,11.139,1.372,41.555,41.555,0,0,0,13.4-1.614c4.762-1.614,9.929-8.153,10.009-11.7C160.155,127.916,159.994,126.867,159.187,126.867Z" transform="translate(229.237 -16.337)" fill="#015c31"/>
      <path id="Path_207" data-name="Path 207" d="M75.113,28.758a5.506,5.506,0,0,0,3.713-.969,10.335,10.335,0,0,0,3.229-5.327,2.491,2.491,0,0,0-.161-1.372,2.8,2.8,0,0,0-2.1-.969,10.918,10.918,0,0,0-3.955.242A5.734,5.734,0,0,0,71.8,24.4a3.793,3.793,0,0,0,1.937,3.875A5.438,5.438,0,0,0,75.113,28.758Z" transform="translate(306.208 9.851)" fill="#015c31"/>
      <path id="Path_208" data-name="Path 208" d="M88.213,32.65a5.8,5.8,0,0,0,3.875.242,9.809,9.809,0,0,0,4.682-4.117,3.075,3.075,0,0,0,.323-1.372c0-.4-.726-1.13-1.7-1.614a10.152,10.152,0,0,0-3.875-.969c-2.5.081-4.359,1.211-5.085,2.583a3.927,3.927,0,0,0,.726,4.359A1.95,1.95,0,0,0,88.213,32.65Z" transform="translate(407.407 43.655)" fill="#015c31"/>
      <path id="Path_209" data-name="Path 209" d="M321.044,173.852c-.242-.242-.484-.484-.969-.242-7.345,2.664-13.4,4.682-24.458,5.247-7.426.323-15.983,1.534-27.445-.565l10.9-7.023c9.121-5.731,14.287-8.153,17.274-8.96a14.237,14.237,0,0,0,4.44-2.179c.969-.726,5.65-2.664,10.171-4.117s8.476-3.229,8.96-3.713l.484-.484c.242-.242-.807-2.987-2.179-4.44a2.541,2.541,0,0,0-2.179-.969l-3.39.161c-3.229.081-10.251,1.857-12.673,3.471-.726.484-1.453.726-1.7.484-.484-.484,0-.969,2.179-1.857A7.732,7.732,0,0,0,302.4,147.3c2.341-2.26,4.762-6.054,5.166-8.314.646-3.955-.726-5.65-3.067-8.072-6.135-6.377-17.758-6.458-24.62-4.036a4.552,4.552,0,0,1-.969.323,1.955,1.955,0,0,0-.646-.888,1.244,1.244,0,0,0-1.211,0,55.382,55.382,0,0,0-4.682,2.987,102.883,102.883,0,0,0-9.364,4.762c-2.018.726-5.65,2.26-7.184,2.987-2.664,1.453-13.561,3.309-15.5,2.018-2.341-1.7-1.614-3.875,0-6.215l.807-1.13a22.118,22.118,0,0,1,6.377-6.458c-.081.161,4.924-3.794,7.588-5.812a18.208,18.208,0,0,1,1.7-1.292c1.534-.726,3.471-2.583,7.265-7.1l.888-1.292a13.743,13.743,0,0,0,1.372-2.583c.646-2.422-.484-4.924-2.825-6.538a13.127,13.127,0,0,0-5.085-1.937c-1.614-.323-2.987-.484-3.229-.161a2.7,2.7,0,0,1-1.937.081c-.969-.081-8.072,1.776-9.848,2.179a31.987,31.987,0,0,0-6.054,2.179c-1.049.323-18.162,6.7-17.92,6.942a4.234,4.234,0,0,0-1.937.726,1.953,1.953,0,0,1-1.534.4c-.161-.081-.161-.323,0-.646l.4-.565a7.476,7.476,0,0,1,1.534-.969c.081-.161,1.211-.807,2.018-1.453.323-.4.807-.888,9.121-7.1l3.148-2.341c1.453-.888,2.5-1.776,2.744-1.776a21.3,21.3,0,0,0,2.987-3.067c.888-1.049,1.534-1.857,2.018-2.5a6.848,6.848,0,0,0,1.211-2.26A12.736,12.736,0,0,0,242.1,84.9c.081-1.614-.969-3.39-2.906-4.762a15.971,15.971,0,0,0-6.135-2.422l-2.1-.242c-5.973-.081-15.579,3.794-17.113,4.924a1.3,1.3,0,0,0-.726.242,3.644,3.644,0,0,1-.565.565l-1.292.726a.877.877,0,0,1-.4.081,6.608,6.608,0,0,0-2.664,1.534,10.847,10.847,0,0,1-2.987,1.776c-.888.323-4.359,2.341-4.682,2.987A3.024,3.024,0,0,1,199,91.437a4.358,4.358,0,0,0-1.534,1.13,5.031,5.031,0,0,1-1.776,1.211,22.452,22.452,0,0,0-3.875,2.422c-1.211.888-2.825,1.857-3.552,1.857l-4.682,1.049c-2.664.726-3.875.888-5.57.484-.646-.161-1.372-.323-1.857-.484-.323-.161-.4-.4-.565-.484a9.4,9.4,0,0,1-.323-2.422,9.252,9.252,0,0,1,.726-2.664c.4-.726.807-1.7,1.7-3.148A148.2,148.2,0,0,1,191.408,71.5a54.539,54.539,0,0,0,6.619-9.606,3.738,3.738,0,0,0,.565-1.453c.242-.807.161-1.049-1.211-1.776L194.8,57.373c-1.857-.161-7.991,1.937-8.637,3.31-.081.242-3.148,3.632-5,5.731a32.679,32.679,0,0,1-6.215,3.471,6.032,6.032,0,0,1-3.955.161c-2.583-.807-4.924-2.987-5.408-4.359-1.049-2.825-1.292-3.794-1.292-8.233a17.511,17.511,0,0,1,.807-5.812c-.484,1.614,2.906-6.942,3.955-10.171.081-.323.4-.726.565-.726.161.081.4-.242.807-.807a6.148,6.148,0,0,1,.807-.969,2.617,2.617,0,0,0,.807-1.372,3.686,3.686,0,0,1,1.13-1.776,10.472,10.472,0,0,0,2.1-3.794,6.8,6.8,0,0,0,.323-2.179l-.161-1.857-.969-1.372c.081-.161-.726-.565-1.534-.807l-1.7-.323c-.081.161-4.843.646-5.812,2.1-.323.4-.646.888-.969.726a8.689,8.689,0,0,0-2.341,2.26,1.591,1.591,0,0,1-.646.888c-.4.242-2.1,3.794-3.552,8.314-1.049,3.229-1.13,9.041-1.453,12.35-.242.242-1.937,2.744-1.857,2.422.081-.161-3.148,4.359-3.31,4.278.081-.161-3.713,3.794-3.713,3.794s-4.359,4.117-4.2,4.2a10.063,10.063,0,0,0-2.987,2.744,1.865,1.865,0,0,1-.565.565,29.235,29.235,0,0,0-3.31,3.067c-.161-.081-.4.081-.484.4A43.1,43.1,0,0,0,132,77.311c-.888.4-4.2,3.632-4.924,3.632-.565.726-2.5.646-2.5.646-2.1,1.13-1.7-2.5,1.049-11.22a51.527,51.527,0,0,1,3.471-8.153,1.071,1.071,0,0,0-.081-.888c-.161-.161-.323-.081.081-.323a9.838,9.838,0,0,0,1.372-2.744l.969-2.5c2.1-6.619.323-.969,2.906-9.2l1.372-4.359a10.641,10.641,0,0,0,.807-3.632,10.517,10.517,0,0,0-.081-3.632c-.4-1.534-1.937-2.906-4.2-3.632-1.453-.484-4.359-.888-5,0-.4.565-1.534.242-2.1.4-5.65,1.776-13.8,8.314-14.852,9.848a2.453,2.453,0,0,0-.565.4.889.889,0,0,1-.242.484l-1.13,1.292c-.161.081-.242.161-.323.161a8.028,8.028,0,0,0-2.1,2.26,13.88,13.88,0,0,1-2.26,2.583c-.807.565-3.471,3.552-3.552,4.278a2.978,2.978,0,0,1-1.13,1.534,3.78,3.78,0,0,0-1.13,1.534,4.885,4.885,0,0,1-1.292,1.7,19.328,19.328,0,0,0-2.987,3.471c-.888,1.211-2.1,2.583-2.825,2.825l-4.117,2.422c-2.341,1.534-3.39,2.018-5.166,2.1a7.586,7.586,0,0,1-1.857.081c-.323-.081-.484-.242-.646-.242a10.079,10.079,0,0,1-1.049-2.26,7.9,7.9,0,0,1-.081-2.744c.161-.807.323-1.857.726-3.471a148.976,148.976,0,0,1,7.426-22.2,61.378,61.378,0,0,0,3.471-11.139,5.338,5.338,0,0,0,.081-1.534c0-.888-.161-1.049-1.7-1.292l-2.825-.4c-1.776.4-7.023,4.2-7.265,5.731-.081.323-3.955,8.96-3.955,8.96a.7.7,0,0,1-.242.484A21.973,21.973,0,0,0,72.1,42.6L70.57,49.22l-.081.484c-.484,1.857-.888,3.471-1.13,4.843-.726,4.52-.484,7.668.323,9.121a12.658,12.658,0,0,1,.646,2.341,1.317,1.317,0,0,0,.565.969.578.578,0,0,1,.4.726c-.081.484,1.453,2.664,2.987,3.875a7.067,7.067,0,0,0,3.552,1.453c1.372.242,2.744.242,3.471-.323a27.494,27.494,0,0,1,4.359-1.534c1.937-.4,3.39-.969,3.713-1.614a2.644,2.644,0,0,1,1.534-.969c2.5-.484,7.749-5.812,9.848-10.171a7.667,7.667,0,0,1,1.776-2.5c.726-.4,1.776-1.614,3.39-4.278.646-.565,1.049-1.211,1.372-1.292.161-.161,1.211-1.372,2.1-2.583l1.937-2.422.242-.323c1.857-1.211,3.552-2.906,3.39-3.471a.913.913,0,0,1,.888-.4,4.666,4.666,0,0,0,2.1-1.453c2.179-2.906,9.041-7.265,11.947-6.3.646.242.565,2.664-.081,4.762-.161.484-.4.726-.565,1.211.081-.323-6.538,13.884-7.346,15.256.161.081.161.081.081.242.242.4.081.726-.323.969q-.363.121-2.664,6.78c-.888,2.179-1.372,3.794-1.7,4.762-.646,2.1-.646,2.664-1.372,4.762a9.8,9.8,0,0,0-.4,2.906,21.5,21.5,0,0,0-.081,3.148c-.081.161.969,2.1.807,2.422a31.655,31.655,0,0,0,2.664,4.036c-.161.484,2.422,1.292,2.583,1.372,1.13.323,5.328-1.13,5.812-1.534a22.136,22.136,0,0,0,3.713-2.744c2.341-1.211,1.937-.484,3.471-1.937a31.11,31.11,0,0,1,2.825-2.825c1.857-1.937,4.117-4.036,4.924-4.843.726-.646,1.453-1.13,1.614-1.292a45.28,45.28,0,0,1,4.036-3.875c1.776-1.776,3.471-3.713,5.328-5.408.161.081,4.278-5,4.44-5a.444.444,0,0,1,.242.4c-.484,1.453.323,6.7,4.843,12.189.565.888,3.471,2.5,6.538,3.471a11.727,11.727,0,0,0,6.377.4l-2.825,4.843-.242.484c-.969,1.614-1.857,3.067-2.5,4.278-2.018,4.117-2.744,7.1-2.5,8.8a11.948,11.948,0,0,1-.081,2.422c-.081.565.081.969.242,1.049a.552.552,0,0,1,.161.807c-.242.484.646,2.987,1.7,4.6a7.478,7.478,0,0,0,2.987,2.422,4.668,4.668,0,0,0,3.39.726,23.945,23.945,0,0,1,4.6-.161c1.937.242,3.552.081,4.036-.484a2.968,2.968,0,0,1,1.776-.484c2.5.323,9.121-3.229,12.431-6.7a8,8,0,0,1,2.422-1.857c.807-.161,2.179-.969,4.52-3.067a5.3,5.3,0,0,1,1.776-.807,16.683,16.683,0,0,0,2.825-1.857l2.583-1.776.565-.4c1.937-.888,7.588-3.148,7.507-3.067,2.906-2.1,10.816-4.2,14.691-1.453.565.4-.242,2.744-1.534,4.52-.323.4-.646.565-.888,1.049-.807.888-1.776,1.614-2.583,2.5a21.737,21.737,0,0,1-2.583,2.179l-4.52,3.229c-1.211.807-2.341,1.857-3.552,2.664-3.148,2.1-3.471,2.341-3.794,2.744a18.143,18.143,0,0,1-2.583,1.937,11.913,11.913,0,0,0-2.26,1.7,6.765,6.765,0,0,1-1.857,1.372l-3.39,2.825a20.148,20.148,0,0,1-3.471,3.148c-2.906,2.341-3.955,3.229-4.52,4.036a1.833,1.833,0,0,0-.484,1.292c-.081.969.323,1.7,1.372,2.825l.969,1.292c3.229,2.26,6.78,0,6.78,0,2.179-2.179,10.009-5.973,18.243-9.767,7.911-3.552,15.983-7.184,18.888-7.426-.161-.081,3.31-1.211,4.682-1.7.161.081,5.489-1.049,5.489-1.049a11.085,11.085,0,0,0,2.744.484c1.7-.081,2.664,0,3.067.323.565.4.323,1.049-.484,2.179l-.565.807a31.79,31.79,0,0,1-3.875,4.117c.4-.323-4.036,4.036-4.359,3.794a11.32,11.32,0,0,0-2.26,1.7,9.71,9.71,0,0,1-2.5,1.534c-2.987,1.614-6.7,4.2-11.059,10.413a8.7,8.7,0,0,0-1.534,2.825c-.081.161,0,.242-.081.4-1.13,2.5-1.211,2.906-.565,5a14.6,14.6,0,0,0,5.166,7.991,7.77,7.77,0,0,0,5.327,1.292c7.346-1.292,8.556-1.614,8.8-1.937a6.464,6.464,0,0,1,2.341-.888c-2.1,3.471-1.049,6.538-1.453,10.413a6.155,6.155,0,0,0,1.937,4.924c.807.888,1.776,1.614,2.583,2.422.242.242.565-.081.807.161,1.211,1.211,11.22,1.857,17.6,1.13l1.7-.242-2.179,1.614a34.973,34.973,0,0,1-5.489,3.632,53.478,53.478,0,0,0-8.233,5.408A8.437,8.437,0,0,1,258.486,172a3.076,3.076,0,0,0-1.7.969c-1.13,1.049-4.359.646-6.7-1.049-.726-.484-1.453-.727-1.7-.484-.4.323-8.233-3.632-15.337-6.135a9.511,9.511,0,0,0-2.987-.646c-.726,0-7.991-1.7-13.319.161-4.2,1.453-7.507,3.229-9.686,5.328a7.591,7.591,0,0,0-2.179,8.476,21.232,21.232,0,0,0,5,8.395c2.583,2.664,3.794,3.632,7.1,4.2a7.737,7.737,0,0,1,2.26.646c1.049,1.13,17.113.161,16.628-.323a21.428,21.428,0,0,0,3.148-.646,10.47,10.47,0,0,1,3.39-.646,13.443,13.443,0,0,0,3.229-1.291,10.829,10.829,0,0,1,4.44-1.211,3.674,3.674,0,0,0,2.179-.646c.726-.727,6.458-3.875,9.2-5.085l.888-.323c10.171,2.422,20.745,1.7,28.655,1.13l2.664-.161c1.292-.081,2.744-.565,4.6-.646,10.09-.565,15.983-2.987,20.906-4.44.323-.081.484-.484.888-.565A2.037,2.037,0,0,0,321.044,173.852Zm-50.853-17.274a58.593,58.593,0,0,1-10.009-1.372c-1.292-.4-1.534-.646-1.534-2.341a7.914,7.914,0,0,1,2.906-6.054,33.688,33.688,0,0,1,5.328-3.955c4.6-2.825,6.942-4.036,8.718-4.682,2.744-.807,10.978-5.166,15.579-5.57a4.4,4.4,0,0,0,2.26-.807c.646-.565,7.83-.242,8.718.726,2.26,2.341,3.39,4.762-.081,10.171a9.849,9.849,0,0,1-1.614,2.018,32.74,32.74,0,0,1-5.247,3.632L289,152.219a16.742,16.742,0,0,1-4.843,1.857,12.47,12.47,0,0,0-2.906.888C281.007,155.286,273.1,156.336,270.191,156.578ZM252.109,176.6a3.836,3.836,0,0,1-1.534.807,28.986,28.986,0,0,0-3.794,2.179,22.907,22.907,0,0,1-3.955,2.179l-2.422.888c-2.5,1.049-9.525,3.309-10.736,3.309a4.524,4.524,0,0,0-1.534.565c-1.614.807-9.121.565-11.543-.242a12.1,12.1,0,0,1-3.794-2.664,13.035,13.035,0,0,1-3.067-4.6,5.382,5.382,0,0,1,.081-3.39,6.361,6.361,0,0,1,1.857-2.26c1.857-1.776,4.6-3.794,6.215-3.875a8.021,8.021,0,0,0,3.229-1.049,11.258,11.258,0,0,1,3.875-.646c3.39-.161,10.332.4,9.929.807-.4.323,4.762,1.049,5.247,1.534.081.081,4.843,2.1,5.247,2.5a11.839,11.839,0,0,0,3.955,1.614,4.86,4.86,0,0,1,2.825,1.211C252.432,176.031,252.432,176.273,252.109,176.6Z" transform="translate(286.211 33.542)" fill="#015c31"/>
    </g>
  </g>
</svg>
