<svg xmlns="http://www.w3.org/2000/svg" xmlns:xlink="http://www.w3.org/1999/xlink" width="26" height="26" viewBox="0 0 26 26">
  <defs>
    <clipPath id="clip-path">
      <rect id="Rectangle_88" data-name="Rectangle 88" width="26" height="26" transform="translate(-0.441)" fill="none"/>
    </clipPath>
  </defs>
  <g id="Group_99" data-name="Group 99" transform="translate(0.441)" clip-path="url(#clip-path)">
    <path id="Path_131" data-name="Path 131" d="M33.416,27.739c-.552-.27-3.23-1.584-3.73-1.761s-.865-.27-1.23.271-1.417,1.761-1.729,2.115-.635.407-1.188.136a14.748,14.748,0,0,1-4.386-2.689,16.2,16.2,0,0,1-3.032-3.739c-.312-.543-.031-.834.24-1.105.25-.25.542-.636.823-.948.073-.094.135-.177.2-.26a5.863,5.863,0,0,0,.344-.647.977.977,0,0,0-.041-.948c-.136-.271-1.229-2.938-1.688-4.021s-.906-.9-1.229-.9-.678-.051-1.042-.051a2.016,2.016,0,0,0-1.459.677,6.064,6.064,0,0,0-1.906,4.521,6.9,6.9,0,0,0,.281,1.845,12.313,12.313,0,0,0,1.948,3.751c.271.354,3.772,6,9.314,8.178,5.553,2.157,5.553,1.438,6.554,1.344s3.23-1.3,3.677-2.573a4.473,4.473,0,0,0,.323-2.574c-.135-.219-.5-.354-1.041-.625" transform="translate(-10 -10)" fill="#015c31" fill-rule="evenodd"/>
  </g>
</svg>
